<svg xmlns="http://www.w3.org/2000/svg" width="64" height="64" viewBox="0 0 48 48" version="1.2"><defs><clipPath id="a"><path d="M1.04 6.29h46.284v34.519H1.04zm0 0"/></clipPath></defs><g clip-path="url(#a)"><path d="M43.43 25.492c-.383-.394-.649-.734-.598-.785.004 0 .008-.004.016-.004.086 0 .406.25.773.606.188-.184.363-.34.504-.45l.02-.011a.519.519 0 01.062-.047l.035-.024a.161.161 0 01.043-.027c.012-.008.024-.016.035-.02a.122.122 0 00.024-.015.119.119 0 01.043-.012h.004c.007 0 .011.004.015.004v.004c.008.004.008.016.004.031a.057.057 0 00-.008.024.352.352 0 01-.02.035.158.158 0 01-.019.035l-.031.05-.035.048a2.442 2.442 0 01-.043.054.466.466 0 01-.043.059.394.394 0 00-.05.062c-.02.02-.04.043-.06.067-.019.02-.038.043-.058.062l-.066.078c-.024.02-.043.043-.067.067-.023.027-.05.055-.074.078l-.031.031.03.031c.024.028.052.051.075.079.024.023.043.046.067.07.023.023.043.05.066.074l.059.067c.02.019.039.042.058.066.016.02.031.039.05.058l.044.06c.016.023.031.038.043.058l.035.047c.012.015.02.03.031.046a.158.158 0 01.02.036c.008.015.015.027.02.039a.03.03 0 00.007.02c.004.015.004.027-.004.034-.004.004-.008.004-.015.004h-.004a.119.119 0 01-.043-.011c-.004-.004-.016-.008-.024-.012-.011-.008-.023-.012-.039-.02-.011-.011-.027-.02-.039-.031-.012-.004-.023-.012-.035-.02l-.062-.046c-.008-.004-.012-.012-.02-.016a5.435 5.435 0 01-.504-.445c-.367.351-.687.601-.773.601-.008 0-.012 0-.016-.004-.05-.05.215-.39.598-.785zm-39.657 0c-.386-.394-.652-.734-.601-.785.004 0 .008-.004.015-.004.086 0 .407.25.774.606.187-.184.363-.34.504-.45a.085.085 0 00.02-.011.519.519 0 01.062-.047.217.217 0 00.031-.024.291.291 0 01.047-.027c.012-.008.023-.016.035-.02.008-.003.016-.011.027-.015a.087.087 0 01.04-.012h.003c.008 0 .012.004.016.004.008.008.008.02.004.035 0 .004-.008.016-.008.02-.004.011-.008.027-.02.039a.158.158 0 01-.019.035c-.012.016-.02.031-.031.05l-.035.048c-.012.015-.024.035-.043.054a.559.559 0 01-.043.059c-.016.02-.035.039-.051.062a.783.783 0 00-.059.067l-.058.062-.067.078c-.023.02-.043.043-.066.067-.023.027-.05.055-.074.078a.196.196 0 00-.028.031.16.16 0 00.028.031c.023.028.05.051.074.079l.066.07c.024.023.043.05.067.074.02.024.039.043.058.067a.64.64 0 01.059.066c.016.02.035.039.05.062l.044.055c.02.024.031.04.043.059l.035.047c.012.015.02.03.031.046a.158.158 0 01.02.036c.011.015.015.027.02.039 0 .007.007.015.007.02.004.015.004.027-.004.034-.004.004-.008.004-.016.004h-.003a.087.087 0 01-.04-.011.19.19 0 01-.027-.012l-.035-.02-.047-.031-.031-.02a.868.868 0 00-.082-.062 6.085 6.085 0 01-.504-.445c-.367.351-.688.601-.773.601-.008 0-.012 0-.016-.004-.05-.05.215-.39.601-.785zM23.18 7.687c-.68-.699-1.149-1.304-1.063-1.39.008-.004.016-.008.031-.008.153 0 .72.445 1.364 1.066.644-.62 1.21-1.066 1.363-1.066.016 0 .023.004.031.008.086.086-.383.691-1.062 1.39.68.696 1.148 1.301 1.062 1.383-.008.008-.015.012-.031.012-.152 0-.719-.445-1.363-1.066-.645.62-1.211 1.066-1.364 1.066-.015 0-.023-.004-.03-.012-.087-.082.382-.687 1.062-1.383zm8.937 6.708c-.68-.696-1.148-1.301-1.062-1.383a.035.035 0 01.027-.012c.152 0 .719.445 1.367 1.066.645-.62 1.211-1.066 1.364-1.066a.04.04 0 01.03.012c.087.082-.382.687-1.066 1.383.684.699 1.153 1.304 1.067 1.39a.074.074 0 01-.032.008c-.152 0-.718-.441-1.363-1.066-.648.625-1.215 1.066-1.367 1.066a.05.05 0 01-.027-.008c-.086-.086.383-.691 1.062-1.39zm-16.937.37c-.68-.699-1.149-1.3-1.063-1.386a.044.044 0 01.031-.012c.153 0 .72.445 1.364 1.07a10.208 10.208 0 011.043-.902l.058-.035c.024-.02.051-.035.075-.05.023-.016.042-.024.062-.036.02-.008.035-.02.047-.023a.507.507 0 01.074-.024h.004c.016 0 .023.004.031.012.012.012.012.031.004.059 0 .011-.008.023-.012.035a.775.775 0 00-.03.07c-.013.02-.028.039-.04.059-.015.03-.035.058-.055.09-.02.023-.039.054-.058.081-.027.032-.047.063-.078.098-.024.035-.051.066-.078.102-.032.035-.059.074-.094.109-.031.04-.067.078-.102.117-.031.04-.066.078-.101.117-.04.047-.078.086-.117.133l-.118.121c-.043.051-.086.094-.132.14-.02.02-.032.036-.051.056.02.02.035.035.05.054.047.047.09.09.133.137l.118.125.117.129c.035.043.07.078.101.117.035.04.07.082.102.117.035.04.062.075.094.114.027.03.054.066.078.097.031.035.05.07.078.102l.058.082c.02.031.04.058.055.086.012.02.027.043.04.058.01.032.019.051.03.07.004.012.012.028.012.04.008.027.008.047-.004.058-.008.008-.015.012-.031.012 0 0 0-.004-.004-.004a.232.232 0 01-.074-.02c-.012-.003-.027-.015-.047-.023l-.063-.035a2.643 2.643 0 01-.074-.05 1.593 1.593 0 01-.168-.121c-.015-.009-.027-.02-.043-.028a12.554 12.554 0 01-.89-.79c-.645.626-1.211 1.071-1.364 1.071a.044.044 0 01-.03-.012c-.087-.086.382-.691 1.062-1.386zm-.098 25.403c-1.148 0-2.305-.117-3.426-.355a16.569 16.569 0 01-9.926-6.348.265.265 0 01-.042-.215.258.258 0 01.128-.18 16 16 0 011.836-.902 16.405 16.405 0 014.516-1.172 18.642 18.642 0 002.766 3.508 18.611 18.611 0 008.988 4.945 16.54 16.54 0 01-4.84.719zm-6.57-9.848a17.247 17.247 0 00-5.067 1.242c-.004 0-.011.004-.02.008-.652.27-1.296.586-1.925.946a.907.907 0 00-.285 1.324c2.586 3.5 6.297 5.754 10.308 6.597a17.224 17.224 0 0010.52-1.101c.102-.047.2-.098.297-.145a17.885 17.885 0 01-10.953-5.136 17.842 17.842 0 01-2.875-3.735zm9.8-4.57a17.719 17.719 0 005.086 12.773 17.183 17.183 0 01-11.488-4.992c-2.894-2.886-4.77-6.789-5.015-11.125a.913.913 0 01.914-.957v.637a.266.266 0 00-.2.09.247.247 0 00-.074.195 16.41 16.41 0 004.828 10.707 16.524 16.524 0 009.48 4.676 18.305 18.305 0 01-4.179-11.715 16.623 16.623 0 00-9.84-3.95l-.015-.64a17.18 17.18 0 0110.504 4.3zm7.938 11.941a18.263 18.263 0 004.285-11.675 16.643 16.643 0 019.813-3.856l.02-.004c.124 0 .206.07.241.11.04.039.098.12.09.242a16.435 16.435 0 01-4.926 10.597 16.554 16.554 0 01-9.523 4.586zm15.086-15.136a.973.973 0 00-.969-1.035l-.05.003a17.178 17.178 0 00-10.422 4.2 17.752 17.752 0 01-5.204 12.726 17.176 17.176 0 0011.532-4.89c2.906-2.84 4.812-6.7 5.113-11.004zm-2.613 16.37c-.34.122-.692.24-1.047.345l-.11.03a15.578 15.578 0 01-.602.16l-.03.009-.059.015a16.79 16.79 0 01-3.973.477 16.46 16.46 0 01-4.359-.582 18.687 18.687 0 008.691-4.875 18.736 18.736 0 003.036-3.957c.832.07 1.652.203 2.445.39.012.004.023.004.035.008.309.075.629.16.941.258.16.047.325.102.48.152.798.274 1.583.61 2.333 1a.33.33 0 01.176.325 16.38 16.38 0 01-7.957 6.246zm8.082-7.136a17.956 17.956 0 00-2.426-1.035c-.168-.055-.332-.11-.496-.16a17.478 17.478 0 00-.985-.27h-.011a17.273 17.273 0 00-2.98-.445 17.976 17.976 0 01-3.126 4.176 17.899 17.899 0 01-10.644 5.105l-.094.012a17.142 17.142 0 006.86 1.426c1.394 0 2.78-.168 4.128-.496.028-.008.055-.012.086-.02.121-.031.246-.062.371-.098.121-.027.242-.066.364-.101a17.107 17.107 0 009.43-6.95.977.977 0 00-.477-1.144zM24.082 37.25a16.431 16.431 0 01-2.863-18.129 16.45 16.45 0 012.687-4.055.27.27 0 01.336.055 16.44 16.44 0 013.832 7.3c.04.165.07.329.106.497.023.113.043.227.062.336l.012.047c.098.586.168 1.195.2 1.816a16.337 16.337 0 01-4.371 12.133zm.734.137c.086-.094.168-.192.25-.29.13-.152.254-.304.375-.46a12.117 12.117 0 00.606-.809c.047-.07.094-.137.14-.207a16.094 16.094 0 00.497-.766s-.004 0-.004.004a17.039 17.039 0 002.445-8.8c0-.329-.012-.653-.031-.98a16.047 16.047 0 00-.211-1.884c-.024-.133-.047-.27-.074-.406l-.106-.504a16.997 16.997 0 00-3.984-7.59.914.914 0 00-1.246-.101 17.081 17.081 0 00-3.239 5.195 17.062 17.062 0 003.848 18.379c.004 0 .004 0 .004-.004 0 .004 0 .004-.004.008h.004l.152-.16c.067-.067.125-.137.188-.203.133-.141.262-.278.39-.422" fill="#5a363b"/></g></svg>