<?xml version="1.0" encoding="UTF-8"?>
<svg xmlns="http://www.w3.org/2000/svg" xmlns:xlink="http://www.w3.org/1999/xlink" width="75pt" height="74.999997pt" viewBox="0 0 75 74.999997" version="1.2">
<defs>
<clipPath id="clip1">
  <path d="M 0.0664062 0 L 74.472656 0 L 74.472656 74.699219 L 0.0664062 74.699219 Z M 0.0664062 0 "/>
</clipPath>
<clipPath id="clip2">
  <path d="M 39 74 L 41 74 L 41 74.699219 L 39 74.699219 Z M 39 74 "/>
</clipPath>
<clipPath id="clip3">
  <path d="M 38 74 L 39 74 L 39 74.699219 L 38 74.699219 Z M 38 74 "/>
</clipPath>
<clipPath id="clip4">
  <path d="M 12 1 L 74.472656 1 L 74.472656 74 L 12 74 Z M 12 1 "/>
</clipPath>
<clipPath id="clip5">
  <path d="M 39 74 L 40 74 L 40 74.699219 L 39 74.699219 Z M 39 74 "/>
</clipPath>
<clipPath id="clip6">
  <path d="M 42 74 L 44 74 L 44 74.699219 L 42 74.699219 Z M 42 74 "/>
</clipPath>
<clipPath id="clip7">
  <path d="M 40 74 L 43 74 L 43 74.699219 L 40 74.699219 Z M 40 74 "/>
</clipPath>
<clipPath id="clip8">
  <path d="M 0.0664062 0 L 47 0 L 47 74.699219 L 0.0664062 74.699219 Z M 0.0664062 0 "/>
</clipPath>
<clipPath id="clip9">
  <path d="M 17.976562 24.226562 L 75 24.226562 L 75 59.394531 L 17.976562 59.394531 Z M 17.976562 24.226562 "/>
</clipPath>
<clipPath id="clip10">
  <path d="M 29.269531 13.941406 L 60.960938 13.941406 L 60.960938 37.324219 L 29.269531 37.324219 Z M 29.269531 13.941406 "/>
</clipPath>
</defs>
<g id="surface1">
<g clip-path="url(#clip1)" clip-rule="nonzero">
<path style=" stroke:none;fill-rule:nonzero;fill:rgb(0%,0%,0%);fill-opacity:1;" d="M 37.40625 1.605469 C 57.121094 1.605469 73.164062 17.644531 73.164062 37.363281 C 73.164062 57.078125 57.121094 73.121094 37.40625 73.121094 C 17.6875 73.121094 1.648438 57.078125 1.648438 37.363281 C 1.648438 17.644531 17.6875 1.605469 37.40625 1.605469 Z M 37.40625 74.710938 C 58 74.710938 74.753906 57.957031 74.753906 37.363281 C 74.753906 16.769531 58 0.015625 37.40625 0.015625 C 16.8125 0.015625 0.0585938 16.769531 0.0585938 37.363281 C 0.0585938 57.957031 16.8125 74.710938 37.40625 74.710938 "/>
</g>
<path style=" stroke:none;fill-rule:nonzero;fill:rgb(0%,0%,0%);fill-opacity:1;" d="M 40.417969 0.136719 C 40.261719 0.125 40.105469 0.113281 39.953125 0.101562 C 40.109375 0.113281 40.261719 0.125 40.417969 0.136719 "/>
<path style=" stroke:none;fill-rule:nonzero;fill:rgb(0%,0%,0%);fill-opacity:1;" d="M 38.601562 0.0351562 C 38.492188 0.03125 38.382812 0.0273438 38.269531 0.0273438 C 38.382812 0.0273438 38.492188 0.03125 38.601562 0.0351562 "/>
<path style=" stroke:none;fill-rule:nonzero;fill:rgb(0%,0%,0%);fill-opacity:1;" d="M 42.507812 0.363281 C 42.339844 0.34375 42.175781 0.320312 42.011719 0.300781 C 42.175781 0.320312 42.339844 0.34375 42.507812 0.363281 "/>
<path style=" stroke:none;fill-rule:nonzero;fill:rgb(0%,0%,0%);fill-opacity:1;" d="M 41.753906 0.269531 C 41.410156 0.230469 41.066406 0.195312 40.722656 0.164062 C 41.070312 0.195312 41.410156 0.230469 41.753906 0.269531 "/>
<path style=" stroke:none;fill-rule:nonzero;fill:rgb(0%,0%,0%);fill-opacity:1;" d="M 39.535156 0.078125 C 39.398438 0.0703125 39.257812 0.0625 39.121094 0.0546875 C 39.257812 0.0625 39.398438 0.0703125 39.535156 0.078125 "/>
<path style=" stroke:none;fill-rule:nonzero;fill:rgb(0%,0%,0%);fill-opacity:1;" d="M 43.316406 0.484375 C 43.167969 0.460938 43.019531 0.4375 42.871094 0.414062 C 43.019531 0.4375 43.167969 0.460938 43.316406 0.484375 "/>
<g clip-path="url(#clip2)" clip-rule="nonzero">
<path style=" stroke:none;fill-rule:nonzero;fill:rgb(0%,0%,0%);fill-opacity:1;" d="M 39.953125 74.621094 C 40.121094 74.609375 40.289062 74.597656 40.457031 74.585938 C 40.289062 74.597656 40.121094 74.609375 39.953125 74.621094 "/>
</g>
<g clip-path="url(#clip3)" clip-rule="nonzero">
<path style=" stroke:none;fill-rule:nonzero;fill:rgb(0%,0%,0%);fill-opacity:1;" d="M 38.273438 74.699219 C 38.390625 74.695312 38.503906 74.691406 38.621094 74.6875 C 38.503906 74.691406 38.390625 74.695312 38.273438 74.699219 "/>
</g>
<g clip-path="url(#clip4)" clip-rule="nonzero">
<path style=" stroke:none;fill-rule:nonzero;fill:rgb(0%,0%,0%);fill-opacity:1;" d="M 42.257812 73.285156 C 25.832031 70.140625 12.09375 54.945312 12.09375 37.34375 C 12.09375 19.800781 24.734375 4.296875 42.011719 1.40625 L 47.515625 1.40625 C 63.214844 5.828125 74.753906 20.269531 74.753906 37.363281 C 74.753906 54.410156 63.269531 68.828125 47.632812 73.285156 L 42.257812 73.285156 "/>
</g>
<g clip-path="url(#clip5)" clip-rule="nonzero">
<path style=" stroke:none;fill-rule:nonzero;fill:rgb(0%,0%,0%);fill-opacity:1;" d="M 39.125 74.667969 C 39.273438 74.660156 39.417969 74.65625 39.566406 74.644531 C 39.417969 74.65625 39.273438 74.660156 39.125 74.667969 "/>
</g>
<g clip-path="url(#clip6)" clip-rule="nonzero">
<path style=" stroke:none;fill-rule:nonzero;fill:rgb(0%,0%,0%);fill-opacity:1;" d="M 42.910156 74.304688 C 43.070312 74.28125 43.230469 74.253906 43.390625 74.230469 C 43.230469 74.253906 43.070312 74.28125 42.910156 74.304688 "/>
</g>
<g clip-path="url(#clip7)" clip-rule="nonzero">
<path style=" stroke:none;fill-rule:nonzero;fill:rgb(0%,0%,0%);fill-opacity:1;" d="M 40.730469 74.558594 C 41.363281 74.503906 41.992188 74.433594 42.621094 74.34375 C 41.996094 74.433594 41.367188 74.503906 40.730469 74.558594 "/>
</g>
<g clip-path="url(#clip8)" clip-rule="nonzero">
<path style=" stroke:none;fill-rule:nonzero;fill:rgb(0%,0%,0%);fill-opacity:1;" d="M 38.636719 73.097656 C 38.226562 73.113281 37.816406 73.121094 37.40625 73.121094 C 17.6875 73.121094 1.648438 57.078125 1.648438 37.363281 C 1.648438 17.644531 17.6875 1.605469 37.40625 1.605469 C 37.777344 1.605469 38.152344 1.609375 38.523438 1.621094 C 31.769531 3.6875 25.679688 7.660156 21.035156 13.09375 C 15.269531 19.84375 12.09375 28.453125 12.09375 37.34375 C 12.09375 46.253906 15.28125 54.878906 21.074219 61.636719 C 25.742188 67.078125 31.859375 71.050781 38.636719 73.097656 Z M 37.40625 74.710938 C 39.476562 74.710938 41.5625 74.535156 43.613281 74.195312 L 46.488281 73.097656 L 43.609375 72.625 C 26.269531 69.78125 13.683594 54.945312 13.683594 37.34375 C 13.683594 19.800781 26.21875 4.96875 43.496094 2.078125 L 46.300781 1.609375 L 43.492188 0.511719 C 41.484375 0.183594 39.4375 0.015625 37.40625 0.015625 C 16.8125 0.015625 0.0585938 16.769531 0.0585938 37.363281 C 0.0585938 57.957031 16.8125 74.710938 37.40625 74.710938 "/>
</g>
<g clip-path="url(#clip9)" clip-rule="nonzero">
<path style=" stroke:none;fill-rule:nonzero;fill:rgb(98.429871%,97.24884%,97.24884%);fill-opacity:1;" d="M 18.039062 46.777344 C 19.523438 45.546875 20.660156 44.660156 21.417969 44.144531 C 22.628906 43.328125 25.140625 41.875 28.386719 41.339844 C 31.664062 40.796875 34.863281 41.296875 37.890625 42.820312 C 39.480469 43.621094 40.777344 44.234375 41.875 44.710938 C 41.894531 44.695312 41.914062 44.683594 41.9375 44.671875 C 42.210938 44.554688 48.664062 41.820312 50.953125 41.082031 C 51.417969 40.933594 52.820312 40.488281 54.292969 41.410156 C 55.996094 40.65625 57.320312 40.082031 57.589844 39.992188 C 59.371094 39.402344 60.578125 39.695312 61.175781 40.867188 C 61.609375 40.695312 62.804688 40.304688 63.871094 40.746094 C 64.558594 41.027344 65.054688 41.597656 65.347656 42.429688 C 65.394531 42.5625 65.339844 42.707031 65.214844 42.773438 C 65.15625 42.804688 59.949219 45.613281 56.496094 47.570312 L 59.355469 47.066406 C 61.621094 46.566406 63.210938 46.726562 64.082031 47.550781 C 64.914062 48.335938 64.746094 49.410156 64.738281 49.457031 C 64.714844 49.585938 64.609375 49.679688 64.480469 49.691406 C 61.839844 49.890625 44.035156 54.792969 43.855469 54.84375 C 43.8125 54.859375 43.765625 54.859375 43.722656 54.851562 L 33.480469 52.714844 C 33.441406 52.707031 29.238281 51.773438 26.914062 52.4375 C 24.609375 53.09375 19.640625 59.230469 19.589844 59.292969 C 19.535156 59.363281 19.449219 59.402344 19.367188 59.402344 C 19.304688 59.402344 19.242188 59.382812 19.1875 59.339844 C 19.066406 59.242188 19.046875 59.0625 19.144531 58.941406 C 19.351562 58.683594 24.277344 52.597656 26.757812 51.894531 C 29.21875 51.191406 33.429688 52.125 33.601562 52.164062 L 43.769531 54.285156 C 45.113281 53.914062 60.902344 49.578125 64.1875 49.15625 C 64.1875 48.875 64.117188 48.363281 63.691406 47.964844 C 62.976562 47.289062 61.515625 47.171875 59.472656 47.625 C 59.46875 47.625 59.464844 47.625 59.460938 47.625 L 54.230469 48.546875 C 54.398438 48.910156 54.441406 49.308594 54.363281 49.738281 C 54.292969 50.128906 54.074219 50.449219 53.707031 50.691406 C 53.160156 51.050781 52.28125 51.230469 51.082031 51.230469 C 50.640625 51.230469 50.152344 51.207031 49.621094 51.15625 C 48.253906 51.027344 47.097656 50.78125 46.953125 50.75 C 46.628906 50.707031 40.484375 49.917969 38.742188 49.742188 C 38.582031 49.726562 38.46875 49.589844 38.484375 49.433594 C 38.5 49.277344 38.640625 49.164062 38.796875 49.179688 C 40.589844 49.355469 46.976562 50.179688 47.039062 50.1875 C 47.046875 50.191406 47.058594 50.191406 47.066406 50.195312 C 48.386719 50.488281 52.105469 51.070312 53.394531 50.21875 C 53.628906 50.0625 53.761719 49.875 53.804688 49.636719 C 53.886719 49.199219 53.800781 48.828125 53.539062 48.496094 C 52.644531 47.347656 50.066406 47.128906 49.777344 47.109375 C 49.496094 47.085938 49.226562 47.070312 48.96875 47.054688 C 46.160156 46.875 44.464844 46.765625 37.636719 43.332031 C 34.71875 41.863281 31.640625 41.382812 28.484375 41.902344 C 25.34375 42.421875 22.910156 43.828125 21.742188 44.621094 C 20.996094 45.125 19.875 46 18.40625 47.21875 C 18.285156 47.316406 18.109375 47.300781 18.003906 47.183594 C 17.902344 47.0625 17.921875 46.878906 18.039062 46.777344 Z M 51.128906 41.621094 C 49.195312 42.246094 44.089844 44.382812 42.585938 45.011719 C 43.359375 45.332031 44.023438 45.578125 44.617188 45.765625 C 44.640625 45.742188 44.667969 45.722656 44.699219 45.707031 C 45.015625 45.5625 49.960938 43.332031 53.644531 41.695312 C 52.664062 41.226562 51.757812 41.421875 51.128906 41.621094 Z M 57.773438 40.527344 C 57.125 40.742188 49.691406 44.078125 45.429688 46 C 46.734375 46.335938 47.734375 46.402344 48.972656 46.480469 C 48.992188 46.464844 49.011719 46.449219 49.039062 46.4375 L 60.65625 41.101562 C 60.195312 40.222656 59.25 40.035156 57.773438 40.527344 Z M 53.890625 48.027344 C 53.894531 48.027344 53.894531 48.027344 53.898438 48.027344 L 54.859375 47.855469 C 54.863281 47.855469 54.863281 47.855469 54.867188 47.855469 C 57.753906 46.164062 63.527344 43.042969 64.726562 42.394531 C 64.484375 41.839844 64.128906 41.460938 63.660156 41.269531 C 62.59375 40.828125 61.269531 41.441406 61.253906 41.449219 L 50.121094 46.566406 C 50.960938 46.65625 52.953125 46.976562 53.890625 48.027344 Z M 62.277344 -0.0546875 C 59.890625 -0.0546875 57.558594 -0.617188 55.320312 -1.746094 C 53.734375 -2.542969 52.4375 -3.160156 51.339844 -3.636719 C 51.316406 -3.621094 51.296875 -3.609375 51.273438 -3.597656 C 51 -3.480469 44.550781 -0.746094 42.261719 -0.0117188 C 42.011719 0.0703125 41.503906 0.234375 40.863281 0.234375 C 40.289062 0.234375 39.613281 0.101562 38.917969 -0.335938 C 37.214844 0.417969 35.894531 0.992188 35.621094 1.082031 C 35.027344 1.28125 34.496094 1.378906 34.03125 1.378906 C 33.101562 1.378906 32.433594 0.988281 32.035156 0.207031 C 31.746094 0.320312 31.125 0.53125 30.425781 0.53125 C 30.070312 0.53125 29.699219 0.476562 29.339844 0.328125 C 28.652344 0.046875 28.15625 -0.523438 27.863281 -1.355469 C 27.816406 -1.488281 27.871094 -1.632812 27.996094 -1.699219 C 28.054688 -1.730469 33.261719 -4.535156 36.710938 -6.496094 L 33.855469 -5.988281 C 33 -5.800781 32.238281 -5.707031 31.578125 -5.707031 C 30.492188 -5.707031 29.671875 -5.960938 29.128906 -6.472656 C 28.296875 -7.257812 28.464844 -8.332031 28.472656 -8.378906 C 28.496094 -8.507812 28.601562 -8.605469 28.730469 -8.613281 C 31.371094 -8.816406 49.175781 -13.71875 49.355469 -13.765625 C 49.398438 -13.777344 49.445312 -13.78125 49.488281 -13.773438 L 59.730469 -11.636719 C 59.773438 -11.628906 63.972656 -10.699219 66.296875 -11.359375 C 68.605469 -12.015625 73.574219 -18.15625 73.621094 -18.214844 C 73.722656 -18.335938 73.898438 -18.359375 74.023438 -18.257812 C 74.144531 -18.160156 74.164062 -17.984375 74.066406 -17.863281 C 73.855469 -17.601562 68.933594 -11.519531 66.453125 -10.816406 C 63.992188 -10.113281 59.78125 -11.046875 59.609375 -11.085938 L 49.441406 -13.203125 C 48.097656 -12.835938 32.308594 -8.5 29.019531 -8.078125 C 29.023438 -7.796875 29.09375 -7.28125 29.527344 -6.878906 C 30.242188 -6.210938 31.703125 -6.09375 33.742188 -6.546875 C 33.742188 -6.546875 33.75 -6.546875 33.753906 -6.546875 L 38.980469 -7.46875 C 38.816406 -7.832031 38.769531 -8.226562 38.847656 -8.660156 C 38.917969 -9.050781 39.140625 -9.371094 39.507812 -9.613281 C 40.257812 -10.105469 41.632812 -10.261719 43.589844 -10.078125 C 44.957031 -9.949219 46.117188 -9.703125 46.257812 -9.667969 C 46.578125 -9.628906 52.726562 -8.835938 54.472656 -8.664062 C 54.628906 -8.648438 54.742188 -8.511719 54.726562 -8.355469 C 54.710938 -8.199219 54.570312 -8.085938 54.414062 -8.101562 C 52.621094 -8.277344 46.238281 -9.101562 46.171875 -9.109375 C 46.164062 -9.109375 46.15625 -9.113281 46.144531 -9.113281 C 44.824219 -9.410156 41.109375 -9.992188 39.820312 -9.140625 C 39.585938 -8.984375 39.449219 -8.792969 39.40625 -8.558594 C 39.328125 -8.121094 39.414062 -7.75 39.671875 -7.417969 C 40.566406 -6.265625 43.144531 -6.050781 43.4375 -6.027344 C 43.71875 -6.007812 43.988281 -5.992188 44.246094 -5.976562 C 47.050781 -5.796875 48.75 -5.6875 55.578125 -2.25 C 58.496094 -0.78125 61.574219 -0.300781 64.730469 -0.824219 C 67.871094 -1.34375 70.300781 -2.75 71.472656 -3.539062 C 72.195312 -4.03125 73.277344 -4.871094 74.683594 -6.039062 C 74.804688 -6.136719 74.984375 -6.121094 75.085938 -6 C 75.1875 -5.878906 75.167969 -5.699219 75.046875 -5.601562 C 73.625 -4.421875 72.53125 -3.574219 71.789062 -3.070312 C 70.582031 -2.253906 68.070312 -0.800781 64.824219 -0.265625 C 63.96875 -0.125 63.121094 -0.0546875 62.277344 -0.0546875 Z M 42.082031 -0.546875 C 44.015625 -1.171875 49.121094 -3.308594 50.625 -3.941406 C 49.855469 -4.257812 49.1875 -4.503906 48.59375 -4.691406 C 48.570312 -4.667969 48.542969 -4.648438 48.515625 -4.632812 C 48.195312 -4.488281 43.25 -2.257812 39.566406 -0.621094 C 40.550781 -0.152344 41.457031 -0.347656 42.082031 -0.546875 Z M 35.441406 0.546875 C 36.085938 0.332031 43.523438 -3.003906 47.78125 -4.925781 C 46.480469 -5.261719 45.480469 -5.328125 44.242188 -5.40625 C 44.222656 -5.390625 44.203125 -5.375 44.175781 -5.363281 L 32.558594 -0.0273438 C 33.019531 0.847656 33.960938 1.039062 35.441406 0.546875 Z M 39.320312 -6.953125 C 39.320312 -6.953125 39.316406 -6.953125 39.316406 -6.953125 L 38.351562 -6.785156 C 38.351562 -6.78125 38.347656 -6.78125 38.347656 -6.78125 C 35.460938 -5.089844 29.6875 -1.96875 28.488281 -1.320312 C 28.730469 -0.765625 29.085938 -0.390625 29.554688 -0.195312 C 30.621094 0.246094 31.945312 -0.367188 31.960938 -0.378906 L 43.09375 -5.492188 C 42.253906 -5.582031 40.257812 -5.902344 39.320312 -6.953125 Z M 39.320312 -6.953125 "/>
</g>
<g clip-path="url(#clip10)" clip-rule="nonzero">
<path style=" stroke:none;fill-rule:nonzero;fill:rgb(98.429871%,97.24884%,97.24884%);fill-opacity:1;" d="M 58.296875 26.949219 C 58.03125 26.683594 57.851562 26.453125 57.882812 26.421875 C 57.886719 26.417969 57.890625 26.417969 57.898438 26.417969 C 57.953125 26.414062 58.175781 26.585938 58.425781 26.824219 C 58.554688 26.703125 58.675781 26.597656 58.769531 26.523438 C 58.777344 26.519531 58.78125 26.515625 58.785156 26.511719 C 58.800781 26.5 58.8125 26.492188 58.828125 26.480469 C 58.835938 26.476562 58.84375 26.472656 58.851562 26.464844 C 58.859375 26.460938 58.871094 26.453125 58.878906 26.445312 C 58.886719 26.441406 58.894531 26.4375 58.902344 26.433594 C 58.910156 26.429688 58.917969 26.425781 58.921875 26.425781 C 58.933594 26.421875 58.945312 26.417969 58.949219 26.417969 C 58.949219 26.417969 58.953125 26.417969 58.953125 26.417969 C 58.957031 26.417969 58.960938 26.417969 58.964844 26.421875 C 58.96875 26.425781 58.96875 26.433594 58.964844 26.441406 C 58.964844 26.445312 58.960938 26.453125 58.960938 26.457031 C 58.957031 26.464844 58.953125 26.472656 58.949219 26.484375 C 58.945312 26.492188 58.9375 26.5 58.933594 26.507812 C 58.925781 26.515625 58.921875 26.527344 58.914062 26.539062 C 58.90625 26.550781 58.898438 26.5625 58.886719 26.570312 C 58.878906 26.582031 58.871094 26.597656 58.859375 26.609375 C 58.851562 26.621094 58.839844 26.636719 58.828125 26.648438 C 58.816406 26.664062 58.804688 26.675781 58.792969 26.691406 C 58.78125 26.703125 58.769531 26.71875 58.753906 26.734375 C 58.742188 26.75 58.726562 26.765625 58.714844 26.78125 C 58.699219 26.796875 58.683594 26.8125 58.667969 26.832031 C 58.652344 26.847656 58.640625 26.863281 58.625 26.878906 C 58.605469 26.894531 58.589844 26.914062 58.570312 26.929688 C 58.566406 26.9375 58.558594 26.945312 58.550781 26.949219 C 58.558594 26.957031 58.566406 26.964844 58.570312 26.972656 C 58.589844 26.988281 58.605469 27.007812 58.625 27.023438 C 58.640625 27.042969 58.652344 27.054688 58.667969 27.070312 C 58.683594 27.089844 58.699219 27.105469 58.714844 27.121094 C 58.726562 27.136719 58.742188 27.152344 58.753906 27.167969 C 58.769531 27.183594 58.78125 27.199219 58.792969 27.210938 C 58.804688 27.226562 58.816406 27.242188 58.828125 27.253906 C 58.839844 27.265625 58.851562 27.28125 58.859375 27.292969 C 58.871094 27.308594 58.878906 27.320312 58.886719 27.332031 C 58.898438 27.339844 58.90625 27.351562 58.914062 27.363281 C 58.921875 27.375 58.925781 27.386719 58.933594 27.394531 C 58.9375 27.402344 58.945312 27.414062 58.949219 27.417969 C 58.953125 27.429688 58.957031 27.4375 58.960938 27.445312 C 58.960938 27.449219 58.964844 27.457031 58.964844 27.460938 C 58.96875 27.46875 58.96875 27.476562 58.964844 27.480469 C 58.964844 27.484375 58.964844 27.484375 58.964844 27.484375 C 58.960938 27.484375 58.957031 27.484375 58.953125 27.484375 C 58.953125 27.484375 58.949219 27.484375 58.949219 27.484375 C 58.945312 27.484375 58.933594 27.484375 58.921875 27.476562 C 58.917969 27.476562 58.910156 27.472656 58.902344 27.46875 C 58.894531 27.464844 58.886719 27.460938 58.878906 27.457031 C 58.871094 27.449219 58.859375 27.441406 58.851562 27.4375 C 58.84375 27.433594 58.835938 27.425781 58.828125 27.421875 C 58.8125 27.410156 58.800781 27.402344 58.785156 27.390625 C 58.78125 27.386719 58.777344 27.382812 58.769531 27.378906 C 58.675781 27.308594 58.554688 27.203125 58.425781 27.078125 C 58.175781 27.316406 57.953125 27.484375 57.898438 27.484375 C 57.890625 27.484375 57.886719 27.484375 57.882812 27.484375 C 57.851562 27.449219 58.03125 27.21875 58.296875 26.949219 Z M 31.140625 26.949219 C 30.878906 26.683594 30.699219 26.453125 30.730469 26.421875 C 30.734375 26.417969 30.738281 26.417969 30.742188 26.417969 C 30.800781 26.414062 31.019531 26.585938 31.269531 26.824219 C 31.398438 26.703125 31.519531 26.597656 31.617188 26.523438 C 31.621094 26.519531 31.625 26.515625 31.628906 26.511719 C 31.644531 26.5 31.660156 26.492188 31.671875 26.480469 C 31.679688 26.476562 31.6875 26.472656 31.695312 26.464844 C 31.707031 26.460938 31.714844 26.453125 31.726562 26.445312 C 31.734375 26.441406 31.742188 26.4375 31.75 26.433594 C 31.757812 26.429688 31.761719 26.425781 31.769531 26.425781 C 31.777344 26.421875 31.789062 26.417969 31.796875 26.417969 C 31.804688 26.417969 31.808594 26.417969 31.808594 26.421875 C 31.8125 26.425781 31.8125 26.433594 31.8125 26.441406 C 31.8125 26.445312 31.808594 26.453125 31.804688 26.457031 C 31.800781 26.464844 31.800781 26.472656 31.792969 26.484375 C 31.789062 26.492188 31.785156 26.5 31.777344 26.507812 C 31.773438 26.515625 31.765625 26.527344 31.757812 26.539062 C 31.75 26.550781 31.742188 26.5625 31.734375 26.570312 C 31.726562 26.582031 31.714844 26.597656 31.707031 26.609375 C 31.695312 26.621094 31.683594 26.636719 31.675781 26.648438 C 31.664062 26.664062 31.652344 26.675781 31.640625 26.691406 C 31.625 26.703125 31.613281 26.71875 31.601562 26.734375 C 31.585938 26.75 31.574219 26.765625 31.5625 26.78125 C 31.546875 26.796875 31.53125 26.8125 31.511719 26.832031 C 31.5 26.847656 31.484375 26.863281 31.46875 26.878906 C 31.453125 26.894531 31.433594 26.914062 31.417969 26.929688 C 31.410156 26.9375 31.40625 26.945312 31.398438 26.949219 C 31.40625 26.957031 31.410156 26.964844 31.417969 26.972656 C 31.433594 26.988281 31.453125 27.007812 31.46875 27.023438 C 31.484375 27.042969 31.5 27.054688 31.511719 27.070312 C 31.53125 27.089844 31.546875 27.105469 31.5625 27.121094 C 31.574219 27.136719 31.585938 27.152344 31.601562 27.167969 C 31.613281 27.183594 31.625 27.195312 31.640625 27.210938 C 31.652344 27.226562 31.664062 27.242188 31.675781 27.253906 C 31.683594 27.265625 31.695312 27.28125 31.707031 27.292969 C 31.714844 27.308594 31.726562 27.320312 31.734375 27.332031 C 31.742188 27.339844 31.75 27.351562 31.757812 27.363281 C 31.765625 27.375 31.773438 27.386719 31.777344 27.394531 C 31.785156 27.402344 31.789062 27.414062 31.792969 27.417969 C 31.800781 27.429688 31.800781 27.4375 31.804688 27.445312 C 31.808594 27.449219 31.8125 27.457031 31.8125 27.460938 C 31.8125 27.46875 31.8125 27.476562 31.808594 27.484375 C 31.808594 27.484375 31.804688 27.484375 31.796875 27.484375 C 31.789062 27.484375 31.777344 27.484375 31.769531 27.476562 C 31.761719 27.476562 31.757812 27.472656 31.75 27.46875 C 31.742188 27.464844 31.734375 27.460938 31.726562 27.457031 C 31.714844 27.449219 31.707031 27.441406 31.695312 27.4375 C 31.6875 27.433594 31.679688 27.425781 31.671875 27.421875 C 31.660156 27.410156 31.644531 27.402344 31.628906 27.390625 C 31.625 27.386719 31.621094 27.382812 31.617188 27.378906 C 31.519531 27.304688 31.398438 27.203125 31.269531 27.078125 C 31.019531 27.316406 30.800781 27.484375 30.742188 27.484375 C 30.738281 27.484375 30.734375 27.484375 30.730469 27.484375 C 30.699219 27.449219 30.878906 27.21875 31.140625 26.949219 Z M 44.429688 14.890625 C 43.964844 14.417969 43.644531 14.007812 43.703125 13.949219 C 43.707031 13.945312 43.714844 13.941406 43.722656 13.941406 C 43.828125 13.941406 44.214844 14.242188 44.65625 14.664062 C 45.097656 14.242188 45.488281 13.941406 45.59375 13.941406 C 45.601562 13.941406 45.605469 13.945312 45.613281 13.949219 C 45.671875 14.007812 45.351562 14.417969 44.882812 14.890625 C 45.351562 15.359375 45.671875 15.769531 45.613281 15.828125 C 45.605469 15.832031 45.601562 15.835938 45.59375 15.835938 C 45.488281 15.835938 45.097656 15.535156 44.65625 15.113281 C 44.214844 15.535156 43.828125 15.835938 43.722656 15.835938 C 43.714844 15.835938 43.707031 15.832031 43.703125 15.828125 C 43.644531 15.769531 43.964844 15.359375 44.429688 14.890625 Z M 50.550781 19.433594 C 50.082031 18.960938 49.761719 18.554688 49.820312 18.496094 C 49.824219 18.492188 49.832031 18.488281 49.839844 18.488281 C 49.945312 18.488281 50.332031 18.789062 50.777344 19.210938 C 51.21875 18.789062 51.605469 18.488281 51.710938 18.488281 C 51.71875 18.488281 51.726562 18.492188 51.730469 18.496094 C 51.789062 18.554688 51.46875 18.960938 51.003906 19.433594 C 51.46875 19.90625 51.789062 20.316406 51.730469 20.375 C 51.726562 20.378906 51.71875 20.382812 51.710938 20.382812 C 51.605469 20.382812 51.21875 20.082031 50.777344 19.65625 C 50.332031 20.082031 49.945312 20.382812 49.839844 20.382812 C 49.832031 20.382812 49.824219 20.378906 49.820312 20.375 C 49.761719 20.316406 50.082031 19.90625 50.550781 19.433594 Z M 38.953125 19.683594 C 38.488281 19.210938 38.167969 18.800781 38.226562 18.746094 C 38.230469 18.738281 38.238281 18.738281 38.246094 18.738281 C 38.351562 18.738281 38.738281 19.039062 39.179688 19.460938 C 39.410156 19.242188 39.625 19.054688 39.792969 18.925781 C 39.800781 18.921875 39.808594 18.914062 39.816406 18.90625 C 39.84375 18.886719 39.871094 18.871094 39.894531 18.851562 C 39.90625 18.84375 39.921875 18.835938 39.933594 18.828125 C 39.949219 18.8125 39.96875 18.800781 39.984375 18.792969 C 40 18.78125 40.015625 18.777344 40.027344 18.769531 C 40.039062 18.765625 40.050781 18.757812 40.0625 18.753906 C 40.082031 18.746094 40.097656 18.738281 40.109375 18.738281 C 40.113281 18.738281 40.113281 18.738281 40.113281 18.738281 C 40.125 18.738281 40.128906 18.738281 40.132812 18.746094 C 40.140625 18.753906 40.144531 18.765625 40.140625 18.785156 C 40.136719 18.792969 40.132812 18.800781 40.128906 18.808594 C 40.121094 18.824219 40.117188 18.839844 40.105469 18.859375 C 40.101562 18.871094 40.089844 18.882812 40.082031 18.898438 C 40.070312 18.917969 40.058594 18.933594 40.042969 18.957031 C 40.03125 18.972656 40.015625 18.992188 40.003906 19.011719 C 39.984375 19.035156 39.96875 19.054688 39.949219 19.078125 C 39.933594 19.101562 39.914062 19.125 39.894531 19.148438 C 39.875 19.171875 39.855469 19.195312 39.832031 19.222656 C 39.8125 19.25 39.789062 19.273438 39.765625 19.300781 C 39.742188 19.328125 39.71875 19.355469 39.695312 19.382812 C 39.667969 19.410156 39.640625 19.441406 39.613281 19.46875 C 39.585938 19.496094 39.558594 19.527344 39.535156 19.554688 C 39.503906 19.585938 39.472656 19.617188 39.441406 19.648438 C 39.429688 19.660156 39.417969 19.671875 39.40625 19.683594 C 39.417969 19.695312 39.429688 19.707031 39.441406 19.71875 C 39.472656 19.753906 39.503906 19.78125 39.53125 19.8125 C 39.558594 19.84375 39.585938 19.871094 39.613281 19.898438 C 39.640625 19.929688 39.667969 19.957031 39.695312 19.988281 C 39.71875 20.015625 39.742188 20.039062 39.765625 20.066406 C 39.789062 20.09375 39.8125 20.121094 39.832031 20.144531 C 39.855469 20.171875 39.875 20.195312 39.894531 20.222656 C 39.914062 20.242188 39.933594 20.265625 39.949219 20.289062 C 39.96875 20.3125 39.984375 20.335938 40.003906 20.355469 C 40.015625 20.375 40.03125 20.394531 40.042969 20.410156 C 40.058594 20.433594 40.070312 20.453125 40.082031 20.472656 C 40.089844 20.484375 40.101562 20.5 40.105469 20.511719 C 40.117188 20.53125 40.121094 20.542969 40.128906 20.558594 C 40.132812 20.566406 40.136719 20.578125 40.140625 20.582031 C 40.144531 20.601562 40.140625 20.617188 40.132812 20.625 C 40.128906 20.628906 40.125 20.628906 40.113281 20.628906 C 40.113281 20.628906 40.113281 20.628906 40.109375 20.628906 C 40.097656 20.628906 40.082031 20.625 40.0625 20.617188 C 40.050781 20.613281 40.039062 20.605469 40.027344 20.601562 C 40.015625 20.59375 40 20.585938 39.984375 20.574219 C 39.96875 20.566406 39.953125 20.554688 39.933594 20.542969 C 39.921875 20.535156 39.90625 20.527344 39.894531 20.515625 C 39.871094 20.5 39.84375 20.480469 39.816406 20.460938 C 39.808594 20.453125 39.800781 20.445312 39.789062 20.441406 C 39.621094 20.3125 39.410156 20.128906 39.179688 19.90625 C 38.738281 20.328125 38.351562 20.628906 38.246094 20.628906 C 38.238281 20.628906 38.230469 20.628906 38.226562 20.625 C 38.167969 20.566406 38.488281 20.15625 38.953125 19.683594 Z M 38.882812 36.894531 C 38.097656 36.894531 37.308594 36.8125 36.539062 36.652344 C 33.804688 36.082031 31.390625 34.554688 29.742188 32.351562 C 29.703125 32.292969 29.707031 32.234375 29.714844 32.207031 C 29.722656 32.175781 29.742188 32.121094 29.804688 32.082031 C 30.210938 31.855469 30.632812 31.648438 31.058594 31.472656 C 31.070312 31.46875 31.078125 31.46875 31.089844 31.464844 C 32.066406 31.058594 33.097656 30.796875 34.152344 30.679688 C 34.683594 31.542969 35.320312 32.34375 36.042969 33.054688 C 37.742188 34.722656 39.882812 35.882812 42.199219 36.40625 C 41.128906 36.730469 40.019531 36.894531 38.882812 36.894531 Z M 34.386719 30.222656 C 33.214844 30.324219 32.042969 30.601562 30.917969 31.0625 C 30.914062 31.0625 30.910156 31.066406 30.90625 31.070312 C 30.457031 31.253906 30.015625 31.464844 29.585938 31.710938 C 29.261719 31.890625 29.171875 32.3125 29.390625 32.605469 C 31.160156 34.976562 33.703125 36.503906 36.449219 37.074219 C 37.246094 37.242188 38.0625 37.324219 38.882812 37.324219 C 40.496094 37.324219 42.117188 37 43.652344 36.328125 C 43.71875 36.296875 43.789062 36.261719 43.855469 36.230469 C 41.023438 35.964844 38.382812 34.746094 36.355469 32.75 C 35.582031 31.988281 34.921875 31.136719 34.386719 30.222656 Z M 41.097656 27.125 C 41.039062 30.246094 42.203125 33.382812 44.578125 35.777344 C 41.511719 35.664062 38.742188 34.390625 36.714844 32.394531 C 34.730469 30.441406 33.449219 27.796875 33.28125 24.859375 C 33.257812 24.507812 33.550781 24.210938 33.90625 24.210938 L 33.90625 24.644531 C 33.835938 24.644531 33.789062 24.679688 33.769531 24.703125 C 33.746094 24.726562 33.714844 24.769531 33.71875 24.835938 C 33.875 27.570312 35.050781 30.148438 37.023438 32.089844 C 38.792969 33.832031 41.066406 34.933594 43.515625 35.257812 C 41.65625 33.019531 40.648438 30.246094 40.65625 27.320312 C 38.777344 25.730469 36.390625 24.78125 33.914062 24.644531 L 33.90625 24.210938 C 33.917969 24.210938 33.929688 24.214844 33.941406 24.214844 C 36.683594 24.367188 39.171875 25.441406 41.097656 27.125 Z M 46.53125 35.214844 C 48.414062 32.996094 49.445312 30.230469 49.46875 27.304688 C 51.347656 25.742188 53.726562 24.816406 56.183594 24.691406 L 56.199219 24.691406 C 56.28125 24.691406 56.339844 24.738281 56.363281 24.765625 C 56.390625 24.792969 56.429688 24.847656 56.425781 24.929688 C 56.230469 27.644531 55.035156 30.191406 53.050781 32.109375 C 51.265625 33.832031 48.984375 34.914062 46.53125 35.214844 Z M 56.863281 24.960938 C 56.890625 24.582031 56.578125 24.261719 56.199219 24.261719 C 56.1875 24.261719 56.175781 24.261719 56.164062 24.261719 C 53.4375 24.398438 50.957031 25.449219 49.027344 27.105469 C 49.054688 30.230469 47.863281 33.351562 45.464844 35.726562 C 48.535156 35.640625 51.3125 34.394531 53.359375 32.417969 C 55.351562 30.492188 56.65625 27.875 56.863281 24.960938 Z M 55.074219 36.050781 C 54.839844 36.132812 54.597656 36.210938 54.355469 36.285156 L 54.28125 36.304688 C 54.226562 36.320312 54.171875 36.335938 54.109375 36.351562 C 54.027344 36.375 53.945312 36.394531 53.867188 36.414062 L 53.847656 36.417969 L 53.808594 36.429688 C 52.917969 36.644531 52 36.753906 51.085938 36.753906 C 50.070312 36.753906 49.070312 36.621094 48.101562 36.355469 C 50.339844 35.8125 52.410156 34.671875 54.054688 33.054688 C 54.867188 32.253906 55.5625 31.351562 56.128906 30.375 C 56.699219 30.421875 57.261719 30.511719 57.804688 30.636719 C 57.8125 30.640625 57.820312 30.644531 57.828125 30.644531 C 58.042969 30.695312 58.261719 30.753906 58.472656 30.820312 C 58.585938 30.851562 58.695312 30.886719 58.800781 30.921875 C 59.347656 31.109375 59.886719 31.335938 60.398438 31.601562 C 60.492188 31.648438 60.527344 31.742188 60.519531 31.820312 C 59.191406 33.769531 57.308594 35.230469 55.074219 36.050781 Z M 60.605469 31.21875 C 60.0625 30.9375 59.507812 30.703125 58.945312 30.515625 C 58.832031 30.476562 58.71875 30.441406 58.605469 30.40625 C 58.382812 30.339844 58.15625 30.277344 57.929688 30.222656 C 57.929688 30.222656 57.925781 30.222656 57.925781 30.222656 C 57.246094 30.0625 56.566406 29.964844 55.882812 29.921875 C 55.320312 30.949219 54.605469 31.902344 53.742188 32.75 C 51.765625 34.695312 49.207031 35.902344 46.457031 36.210938 C 46.433594 36.210938 46.414062 36.214844 46.390625 36.21875 C 47.90625 36.871094 49.503906 37.183594 51.085938 37.183594 C 52.042969 37.183594 52.992188 37.070312 53.914062 36.847656 C 53.933594 36.84375 53.953125 36.839844 53.972656 36.832031 C 54.058594 36.8125 54.140625 36.792969 54.226562 36.769531 C 54.308594 36.75 54.394531 36.722656 54.476562 36.699219 C 54.730469 36.625 54.976562 36.542969 55.222656 36.457031 C 57.492188 35.625 59.507812 34.109375 60.933594 31.992188 C 61.023438 31.699219 60.894531 31.367188 60.605469 31.21875 Z M 45.046875 34.914062 C 42.101562 31.777344 41.222656 27.246094 42.824219 23.246094 C 42.90625 23.03125 42.996094 22.824219 43.085938 22.632812 C 43.558594 21.636719 44.175781 20.714844 44.925781 19.890625 C 44.960938 19.871094 44.996094 19.867188 45.019531 19.867188 C 45.050781 19.867188 45.109375 19.875 45.15625 19.925781 C 46.445312 21.328125 47.351562 23.039062 47.78125 24.871094 C 47.808594 24.984375 47.832031 25.09375 47.851562 25.207031 C 47.871094 25.28125 47.882812 25.359375 47.898438 25.433594 L 47.902344 25.46875 C 47.972656 25.863281 48.019531 26.277344 48.042969 26.695312 C 48.054688 26.910156 48.0625 27.121094 48.0625 27.335938 C 48.0625 30.167969 46.996094 32.84375 45.046875 34.914062 Z M 45.550781 35.007812 C 45.609375 34.945312 45.664062 34.878906 45.722656 34.8125 C 45.808594 34.710938 45.894531 34.605469 45.980469 34.5 C 46.027344 34.441406 46.074219 34.382812 46.121094 34.320312 C 46.214844 34.199219 46.304688 34.078125 46.394531 33.953125 C 46.425781 33.90625 46.457031 33.859375 46.492188 33.8125 C 46.597656 33.660156 46.699219 33.5 46.796875 33.34375 C 46.808594 33.324219 46.820312 33.308594 46.828125 33.292969 C 46.828125 33.292969 46.828125 33.292969 46.828125 33.296875 C 47.941406 31.464844 48.5 29.402344 48.5 27.335938 C 48.5 27.113281 48.492188 26.894531 48.480469 26.671875 C 48.457031 26.242188 48.410156 25.816406 48.335938 25.394531 C 48.320312 25.304688 48.300781 25.210938 48.285156 25.121094 C 48.261719 25.003906 48.238281 24.890625 48.210938 24.777344 C 47.773438 22.914062 46.863281 21.140625 45.484375 19.636719 C 45.359375 19.5 45.191406 19.433594 45.019531 19.433594 C 44.882812 19.433594 44.742188 19.476562 44.632812 19.566406 C 43.824219 20.449219 43.175781 21.421875 42.691406 22.453125 C 42.589844 22.660156 42.5 22.875 42.414062 23.085938 C 40.75 27.253906 41.628906 32.171875 45.046875 35.539062 C 45.050781 35.535156 45.050781 35.535156 45.050781 35.535156 C 45.050781 35.535156 45.050781 35.539062 45.046875 35.539062 L 45.050781 35.539062 L 45.15625 35.429688 C 45.199219 35.386719 45.242188 35.339844 45.285156 35.292969 C 45.375 35.199219 45.464844 35.105469 45.550781 35.007812 "/>
</g>
</g>
</svg>
