<?xml version="1.0" encoding="UTF-8"?>
<svg xmlns="http://www.w3.org/2000/svg" xmlns:xlink="http://www.w3.org/1999/xlink" width="48pt" height="48pt" viewBox="0 0 48 48" version="1.2">
<defs>
<clipPath id="clip1">
  <path d="M 1.039062 6.289062 L 47.324219 6.289062 L 47.324219 40.808594 L 1.039062 40.808594 Z M 1.039062 6.289062 "/>
</clipPath>
</defs>
<g id="surface1">
<g clip-path="url(#clip1)" clip-rule="nonzero">
<path style=" stroke:none;fill-rule:nonzero;fill:rgb(35.289001%,21.179199%,23.139954%);fill-opacity:1;" d="M 43.429688 25.492188 C 43.046875 25.097656 42.78125 24.757812 42.832031 24.707031 C 42.835938 24.707031 42.839844 24.703125 42.847656 24.703125 C 42.933594 24.703125 43.253906 24.953125 43.621094 25.308594 C 43.808594 25.125 43.984375 24.96875 44.125 24.859375 C 44.132812 24.855469 44.136719 24.851562 44.144531 24.847656 C 44.167969 24.828125 44.1875 24.8125 44.207031 24.800781 C 44.21875 24.792969 44.230469 24.785156 44.242188 24.777344 C 44.253906 24.765625 44.269531 24.757812 44.285156 24.75 C 44.296875 24.742188 44.308594 24.734375 44.320312 24.730469 C 44.328125 24.726562 44.339844 24.71875 44.34375 24.714844 C 44.363281 24.707031 44.375 24.703125 44.386719 24.703125 C 44.386719 24.703125 44.390625 24.703125 44.390625 24.703125 C 44.398438 24.703125 44.402344 24.707031 44.40625 24.707031 C 44.40625 24.707031 44.40625 24.707031 44.40625 24.710938 C 44.414062 24.714844 44.414062 24.726562 44.410156 24.742188 C 44.40625 24.75 44.402344 24.757812 44.402344 24.765625 C 44.398438 24.773438 44.390625 24.789062 44.382812 24.800781 C 44.378906 24.8125 44.371094 24.824219 44.363281 24.835938 C 44.351562 24.851562 44.34375 24.867188 44.332031 24.886719 C 44.320312 24.902344 44.308594 24.917969 44.296875 24.933594 C 44.285156 24.949219 44.269531 24.96875 44.253906 24.988281 C 44.242188 25.007812 44.226562 25.027344 44.210938 25.046875 C 44.191406 25.066406 44.175781 25.085938 44.160156 25.109375 C 44.140625 25.128906 44.121094 25.152344 44.101562 25.175781 C 44.082031 25.195312 44.0625 25.21875 44.042969 25.238281 C 44.019531 25.265625 44 25.289062 43.976562 25.316406 C 43.953125 25.335938 43.933594 25.359375 43.910156 25.382812 C 43.886719 25.410156 43.859375 25.4375 43.835938 25.460938 C 43.824219 25.472656 43.816406 25.480469 43.804688 25.492188 C 43.816406 25.503906 43.824219 25.511719 43.835938 25.523438 C 43.859375 25.550781 43.886719 25.574219 43.910156 25.601562 C 43.933594 25.625 43.953125 25.648438 43.976562 25.671875 C 44 25.695312 44.019531 25.722656 44.042969 25.746094 C 44.0625 25.769531 44.082031 25.789062 44.101562 25.8125 C 44.121094 25.832031 44.140625 25.855469 44.160156 25.878906 C 44.175781 25.898438 44.191406 25.917969 44.210938 25.9375 C 44.226562 25.960938 44.242188 25.980469 44.253906 25.996094 C 44.269531 26.019531 44.285156 26.035156 44.296875 26.054688 C 44.308594 26.070312 44.320312 26.085938 44.332031 26.101562 C 44.34375 26.117188 44.351562 26.132812 44.363281 26.148438 C 44.371094 26.160156 44.378906 26.171875 44.382812 26.183594 C 44.390625 26.199219 44.398438 26.210938 44.402344 26.222656 C 44.402344 26.230469 44.40625 26.238281 44.410156 26.242188 C 44.414062 26.257812 44.414062 26.269531 44.40625 26.277344 C 44.402344 26.28125 44.398438 26.28125 44.390625 26.28125 C 44.390625 26.28125 44.386719 26.28125 44.386719 26.28125 C 44.375 26.28125 44.363281 26.277344 44.34375 26.269531 C 44.339844 26.265625 44.328125 26.261719 44.320312 26.257812 C 44.308594 26.25 44.296875 26.246094 44.28125 26.238281 C 44.269531 26.226562 44.253906 26.21875 44.242188 26.207031 C 44.230469 26.203125 44.21875 26.195312 44.207031 26.1875 C 44.1875 26.171875 44.167969 26.15625 44.144531 26.140625 C 44.136719 26.136719 44.132812 26.128906 44.125 26.125 C 43.984375 26.019531 43.808594 25.863281 43.621094 25.679688 C 43.253906 26.03125 42.933594 26.28125 42.847656 26.28125 C 42.839844 26.28125 42.835938 26.28125 42.832031 26.277344 C 42.78125 26.226562 43.046875 25.886719 43.429688 25.492188 Z M 3.773438 25.492188 C 3.386719 25.097656 3.121094 24.757812 3.171875 24.707031 C 3.175781 24.707031 3.179688 24.703125 3.1875 24.703125 C 3.273438 24.703125 3.59375 24.953125 3.960938 25.308594 C 4.148438 25.125 4.324219 24.96875 4.464844 24.859375 C 4.472656 24.855469 4.480469 24.851562 4.484375 24.847656 C 4.507812 24.828125 4.527344 24.8125 4.546875 24.800781 C 4.558594 24.792969 4.570312 24.785156 4.578125 24.777344 C 4.59375 24.765625 4.609375 24.757812 4.625 24.75 C 4.636719 24.742188 4.648438 24.734375 4.660156 24.730469 C 4.667969 24.726562 4.675781 24.71875 4.6875 24.714844 C 4.703125 24.707031 4.714844 24.703125 4.726562 24.703125 C 4.726562 24.703125 4.730469 24.703125 4.730469 24.703125 C 4.738281 24.703125 4.742188 24.707031 4.746094 24.707031 C 4.753906 24.714844 4.753906 24.726562 4.75 24.742188 C 4.75 24.746094 4.742188 24.757812 4.742188 24.761719 C 4.738281 24.773438 4.734375 24.789062 4.722656 24.800781 C 4.71875 24.8125 4.710938 24.824219 4.703125 24.835938 C 4.691406 24.851562 4.683594 24.867188 4.671875 24.886719 C 4.660156 24.902344 4.648438 24.917969 4.636719 24.933594 C 4.625 24.949219 4.613281 24.96875 4.59375 24.988281 C 4.582031 25.007812 4.566406 25.027344 4.550781 25.046875 C 4.535156 25.066406 4.515625 25.085938 4.5 25.109375 C 4.480469 25.128906 4.460938 25.152344 4.441406 25.175781 C 4.421875 25.195312 4.402344 25.21875 4.382812 25.238281 C 4.359375 25.265625 4.339844 25.289062 4.316406 25.316406 C 4.292969 25.335938 4.273438 25.359375 4.25 25.382812 C 4.226562 25.410156 4.199219 25.4375 4.175781 25.460938 C 4.164062 25.472656 4.15625 25.480469 4.148438 25.492188 C 4.15625 25.503906 4.164062 25.511719 4.175781 25.523438 C 4.199219 25.550781 4.226562 25.574219 4.25 25.601562 C 4.273438 25.625 4.292969 25.648438 4.316406 25.671875 C 4.339844 25.695312 4.359375 25.722656 4.382812 25.746094 C 4.402344 25.769531 4.421875 25.789062 4.441406 25.8125 C 4.460938 25.832031 4.480469 25.855469 4.5 25.878906 C 4.515625 25.898438 4.535156 25.917969 4.550781 25.941406 C 4.566406 25.960938 4.582031 25.980469 4.59375 25.996094 C 4.613281 26.019531 4.625 26.035156 4.636719 26.054688 C 4.648438 26.070312 4.660156 26.085938 4.671875 26.101562 C 4.683594 26.117188 4.691406 26.132812 4.703125 26.148438 C 4.710938 26.160156 4.71875 26.171875 4.722656 26.183594 C 4.734375 26.199219 4.738281 26.210938 4.742188 26.222656 C 4.742188 26.230469 4.75 26.238281 4.75 26.242188 C 4.753906 26.257812 4.753906 26.269531 4.746094 26.277344 C 4.742188 26.28125 4.738281 26.28125 4.730469 26.28125 C 4.730469 26.28125 4.726562 26.28125 4.726562 26.28125 C 4.714844 26.28125 4.703125 26.277344 4.6875 26.269531 C 4.675781 26.265625 4.667969 26.261719 4.660156 26.257812 C 4.648438 26.25 4.636719 26.246094 4.625 26.238281 C 4.609375 26.226562 4.59375 26.21875 4.578125 26.207031 C 4.570312 26.203125 4.558594 26.195312 4.546875 26.1875 C 4.527344 26.171875 4.507812 26.15625 4.484375 26.140625 C 4.480469 26.136719 4.472656 26.128906 4.464844 26.125 C 4.324219 26.015625 4.148438 25.863281 3.960938 25.679688 C 3.59375 26.03125 3.273438 26.28125 3.1875 26.28125 C 3.179688 26.28125 3.175781 26.28125 3.171875 26.277344 C 3.121094 26.226562 3.386719 25.886719 3.773438 25.492188 Z M 23.179688 7.6875 C 22.5 6.988281 22.03125 6.382812 22.117188 6.296875 C 22.125 6.292969 22.132812 6.289062 22.148438 6.289062 C 22.300781 6.289062 22.867188 6.734375 23.511719 7.355469 C 24.15625 6.734375 24.722656 6.289062 24.875 6.289062 C 24.890625 6.289062 24.898438 6.292969 24.90625 6.296875 C 24.992188 6.382812 24.523438 6.988281 23.84375 7.6875 C 24.523438 8.382812 24.992188 8.988281 24.90625 9.070312 C 24.898438 9.078125 24.890625 9.082031 24.875 9.082031 C 24.722656 9.082031 24.15625 8.636719 23.511719 8.015625 C 22.867188 8.636719 22.300781 9.082031 22.148438 9.082031 C 22.132812 9.082031 22.125 9.078125 22.117188 9.070312 C 22.03125 8.988281 22.5 8.382812 23.179688 7.6875 Z M 32.117188 14.394531 C 31.4375 13.699219 30.96875 13.09375 31.054688 13.011719 C 31.0625 13.003906 31.070312 13 31.082031 13 C 31.234375 13 31.800781 13.445312 32.449219 14.066406 C 33.09375 13.445312 33.660156 13 33.8125 13 C 33.824219 13 33.835938 13.003906 33.84375 13.011719 C 33.929688 13.09375 33.460938 13.699219 32.777344 14.394531 C 33.460938 15.09375 33.929688 15.699219 33.84375 15.785156 C 33.835938 15.789062 33.824219 15.792969 33.8125 15.792969 C 33.660156 15.792969 33.09375 15.351562 32.449219 14.726562 C 31.800781 15.351562 31.234375 15.792969 31.082031 15.792969 C 31.070312 15.792969 31.0625 15.789062 31.054688 15.785156 C 30.96875 15.699219 31.4375 15.09375 32.117188 14.394531 Z M 15.179688 14.765625 C 14.5 14.066406 14.03125 13.464844 14.117188 13.378906 C 14.125 13.371094 14.136719 13.367188 14.148438 13.367188 C 14.300781 13.367188 14.867188 13.8125 15.511719 14.4375 C 15.847656 14.109375 16.160156 13.835938 16.40625 13.648438 C 16.417969 13.636719 16.429688 13.628906 16.445312 13.621094 C 16.484375 13.589844 16.519531 13.5625 16.554688 13.535156 C 16.574219 13.523438 16.59375 13.511719 16.613281 13.5 C 16.636719 13.480469 16.664062 13.464844 16.6875 13.449219 C 16.710938 13.433594 16.730469 13.425781 16.75 13.414062 C 16.769531 13.40625 16.785156 13.394531 16.796875 13.390625 C 16.828125 13.378906 16.851562 13.371094 16.871094 13.367188 C 16.875 13.367188 16.875 13.367188 16.875 13.367188 C 16.890625 13.367188 16.898438 13.371094 16.90625 13.378906 C 16.917969 13.390625 16.917969 13.410156 16.910156 13.4375 C 16.910156 13.449219 16.902344 13.460938 16.898438 13.472656 C 16.886719 13.496094 16.878906 13.515625 16.867188 13.542969 C 16.855469 13.5625 16.839844 13.582031 16.828125 13.601562 C 16.8125 13.632812 16.792969 13.660156 16.773438 13.691406 C 16.753906 13.714844 16.734375 13.746094 16.714844 13.773438 C 16.6875 13.804688 16.667969 13.835938 16.636719 13.871094 C 16.613281 13.90625 16.585938 13.9375 16.558594 13.972656 C 16.527344 14.007812 16.5 14.046875 16.464844 14.082031 C 16.433594 14.121094 16.398438 14.160156 16.363281 14.199219 C 16.332031 14.238281 16.296875 14.277344 16.261719 14.316406 C 16.222656 14.363281 16.183594 14.402344 16.144531 14.449219 C 16.105469 14.488281 16.066406 14.53125 16.027344 14.570312 C 15.984375 14.621094 15.941406 14.664062 15.894531 14.710938 C 15.875 14.730469 15.863281 14.746094 15.84375 14.765625 C 15.863281 14.785156 15.878906 14.800781 15.894531 14.820312 C 15.941406 14.867188 15.984375 14.910156 16.027344 14.957031 C 16.066406 15 16.105469 15.039062 16.144531 15.082031 C 16.183594 15.125 16.222656 15.167969 16.261719 15.210938 C 16.296875 15.253906 16.332031 15.289062 16.363281 15.328125 C 16.398438 15.367188 16.433594 15.410156 16.464844 15.445312 C 16.5 15.484375 16.527344 15.519531 16.558594 15.558594 C 16.585938 15.589844 16.613281 15.625 16.636719 15.65625 C 16.667969 15.691406 16.6875 15.726562 16.714844 15.757812 C 16.734375 15.785156 16.753906 15.8125 16.773438 15.839844 C 16.792969 15.871094 16.8125 15.898438 16.828125 15.925781 C 16.839844 15.945312 16.855469 15.96875 16.867188 15.984375 C 16.878906 16.015625 16.886719 16.035156 16.898438 16.054688 C 16.902344 16.066406 16.910156 16.082031 16.910156 16.09375 C 16.917969 16.121094 16.917969 16.140625 16.90625 16.152344 C 16.898438 16.160156 16.890625 16.164062 16.875 16.164062 C 16.875 16.164062 16.875 16.160156 16.871094 16.160156 C 16.851562 16.160156 16.828125 16.152344 16.796875 16.140625 C 16.785156 16.136719 16.769531 16.125 16.75 16.117188 C 16.730469 16.105469 16.710938 16.09375 16.6875 16.082031 C 16.664062 16.066406 16.640625 16.050781 16.613281 16.03125 C 16.59375 16.019531 16.574219 16.007812 16.554688 15.992188 C 16.519531 15.96875 16.484375 15.941406 16.445312 15.910156 C 16.429688 15.902344 16.417969 15.890625 16.402344 15.882812 C 16.160156 15.691406 15.847656 15.417969 15.511719 15.09375 C 14.867188 15.71875 14.300781 16.164062 14.148438 16.164062 C 14.136719 16.164062 14.125 16.160156 14.117188 16.152344 C 14.03125 16.066406 14.5 15.460938 15.179688 14.765625 Z M 15.082031 40.167969 C 13.933594 40.167969 12.777344 40.050781 11.65625 39.8125 C 7.660156 38.972656 4.136719 36.714844 1.730469 33.464844 C 1.671875 33.382812 1.675781 33.292969 1.6875 33.25 C 1.695312 33.203125 1.726562 33.121094 1.816406 33.070312 C 2.410156 32.730469 3.027344 32.425781 3.652344 32.167969 C 3.667969 32.164062 3.679688 32.160156 3.695312 32.152344 C 5.125 31.558594 6.628906 31.167969 8.167969 30.996094 C 8.949219 32.273438 9.875 33.453125 10.933594 34.503906 C 13.410156 36.96875 16.539062 38.679688 19.921875 39.449219 C 18.359375 39.925781 16.738281 40.167969 15.082031 40.167969 Z M 8.511719 30.320312 C 6.796875 30.472656 5.089844 30.882812 3.445312 31.5625 C 3.441406 31.5625 3.433594 31.566406 3.425781 31.570312 C 2.773438 31.839844 2.128906 32.15625 1.5 32.515625 C 1.027344 32.785156 0.894531 33.40625 1.214844 33.839844 C 3.800781 37.339844 7.511719 39.59375 11.523438 40.4375 C 12.6875 40.683594 13.882812 40.808594 15.082031 40.808594 C 17.433594 40.808594 19.804688 40.328125 22.042969 39.335938 C 22.144531 39.289062 22.242188 39.238281 22.339844 39.191406 C 18.207031 38.800781 14.347656 37 11.386719 34.054688 C 10.253906 32.929688 9.292969 31.671875 8.511719 30.320312 Z M 18.3125 25.75 C 18.230469 30.359375 19.925781 34.988281 23.398438 38.523438 C 18.917969 38.355469 14.875 36.476562 11.910156 33.53125 C 9.015625 30.644531 7.140625 26.742188 6.894531 22.40625 C 6.863281 21.886719 7.289062 21.449219 7.808594 21.449219 L 7.808594 22.085938 C 7.707031 22.085938 7.640625 22.140625 7.609375 22.175781 C 7.578125 22.207031 7.527344 22.273438 7.535156 22.371094 C 7.765625 26.40625 9.480469 30.210938 12.363281 33.078125 C 14.949219 35.648438 18.269531 37.277344 21.84375 37.753906 C 19.125 34.449219 17.660156 30.355469 17.664062 26.039062 C 14.921875 23.691406 11.4375 22.292969 7.824219 22.089844 L 7.808594 21.449219 C 7.824219 21.449219 7.839844 21.449219 7.859375 21.453125 C 11.863281 21.675781 15.5 23.261719 18.3125 25.75 Z M 26.25 37.691406 C 29 34.414062 30.503906 30.332031 30.535156 26.015625 C 33.285156 23.707031 36.757812 22.34375 40.347656 22.160156 L 40.367188 22.15625 C 40.492188 22.15625 40.574219 22.226562 40.609375 22.265625 C 40.648438 22.304688 40.707031 22.386719 40.699219 22.507812 C 40.414062 26.515625 38.667969 30.277344 35.773438 33.105469 C 33.164062 35.648438 29.828125 37.246094 26.25 37.691406 Z M 41.335938 22.554688 C 41.375 21.992188 40.921875 21.519531 40.367188 21.519531 C 40.351562 21.519531 40.332031 21.523438 40.316406 21.523438 C 36.335938 21.726562 32.710938 23.273438 29.894531 25.722656 C 29.933594 30.332031 28.191406 34.941406 24.691406 38.449219 C 29.171875 38.320312 33.230469 36.480469 36.222656 33.558594 C 39.128906 30.71875 41.035156 26.859375 41.335938 22.554688 Z M 38.722656 38.925781 C 38.382812 39.046875 38.03125 39.164062 37.675781 39.269531 L 37.566406 39.300781 C 37.488281 39.324219 37.40625 39.347656 37.316406 39.371094 C 37.199219 39.402344 37.078125 39.433594 36.964844 39.460938 L 36.933594 39.46875 L 36.875 39.484375 C 35.574219 39.800781 34.238281 39.960938 32.902344 39.960938 C 31.414062 39.960938 29.957031 39.765625 28.542969 39.378906 C 31.808594 38.574219 34.835938 36.890625 37.234375 34.503906 C 38.421875 33.320312 39.441406 31.992188 40.269531 30.546875 C 41.101562 30.617188 41.921875 30.75 42.714844 30.9375 C 42.726562 30.941406 42.738281 30.941406 42.75 30.945312 C 43.058594 31.019531 43.378906 31.105469 43.691406 31.203125 C 43.851562 31.25 44.015625 31.304688 44.171875 31.355469 C 44.96875 31.628906 45.753906 31.964844 46.503906 32.355469 C 46.636719 32.425781 46.691406 32.5625 46.679688 32.679688 C 44.742188 35.558594 41.992188 37.714844 38.722656 38.925781 Z M 46.804688 31.789062 C 46.011719 31.378906 45.199219 31.035156 44.378906 30.753906 C 44.210938 30.699219 44.046875 30.644531 43.882812 30.59375 C 43.554688 30.492188 43.230469 30.40625 42.898438 30.324219 C 42.894531 30.324219 42.890625 30.324219 42.886719 30.324219 C 41.898438 30.085938 40.90625 29.941406 39.90625 29.878906 C 39.085938 31.394531 38.039062 32.800781 36.78125 34.054688 C 33.890625 36.925781 30.152344 38.710938 26.136719 39.160156 C 26.105469 39.164062 26.074219 39.167969 26.042969 39.171875 C 28.257812 40.136719 30.589844 40.597656 32.902344 40.597656 C 34.296875 40.597656 35.683594 40.429688 37.03125 40.101562 C 37.058594 40.09375 37.085938 40.089844 37.117188 40.082031 C 37.238281 40.050781 37.363281 40.019531 37.488281 39.984375 C 37.609375 39.957031 37.730469 39.917969 37.851562 39.882812 C 38.222656 39.773438 38.585938 39.65625 38.945312 39.523438 C 42.253906 38.296875 45.203125 36.0625 47.28125 32.933594 C 47.414062 32.503906 47.226562 32.011719 46.804688 31.789062 Z M 24.082031 37.25 C 19.78125 32.617188 18.496094 25.929688 20.832031 20.019531 C 20.957031 19.707031 21.085938 19.402344 21.21875 19.121094 C 21.90625 17.648438 22.808594 16.285156 23.90625 15.066406 C 23.953125 15.039062 24.003906 15.03125 24.039062 15.03125 C 24.085938 15.03125 24.171875 15.042969 24.242188 15.121094 C 26.121094 17.191406 27.445312 19.71875 28.074219 22.421875 C 28.113281 22.585938 28.144531 22.75 28.179688 22.917969 C 28.203125 23.03125 28.222656 23.144531 28.242188 23.253906 L 28.253906 23.300781 C 28.351562 23.886719 28.421875 24.496094 28.453125 25.117188 C 28.472656 25.433594 28.484375 25.742188 28.484375 26.058594 C 28.484375 30.242188 26.925781 34.191406 24.082031 37.25 Z M 24.816406 37.386719 C 24.902344 37.292969 24.984375 37.195312 25.066406 37.097656 C 25.195312 36.945312 25.320312 36.792969 25.441406 36.636719 C 25.511719 36.550781 25.582031 36.460938 25.648438 36.375 C 25.785156 36.195312 25.917969 36.011719 26.046875 35.828125 C 26.09375 35.757812 26.140625 35.691406 26.1875 35.621094 C 26.34375 35.394531 26.492188 35.164062 26.636719 34.929688 C 26.652344 34.902344 26.667969 34.878906 26.683594 34.855469 C 26.683594 34.855469 26.679688 34.855469 26.679688 34.859375 C 28.308594 32.15625 29.125 29.109375 29.125 26.058594 C 29.125 25.730469 29.113281 25.40625 29.09375 25.078125 C 29.058594 24.449219 28.992188 23.816406 28.882812 23.195312 C 28.859375 23.0625 28.835938 22.925781 28.808594 22.789062 C 28.773438 22.617188 28.738281 22.453125 28.703125 22.285156 C 28.0625 19.535156 26.734375 16.914062 24.71875 14.695312 C 24.539062 14.496094 24.289062 14.394531 24.039062 14.394531 C 23.839844 14.394531 23.636719 14.460938 23.472656 14.59375 C 22.292969 15.890625 21.347656 17.332031 20.636719 18.851562 C 20.492188 19.15625 20.359375 19.472656 20.234375 19.789062 C 17.804688 25.9375 19.089844 33.199219 24.082031 38.167969 C 24.085938 38.167969 24.085938 38.167969 24.085938 38.164062 C 24.085938 38.167969 24.085938 38.167969 24.082031 38.171875 L 24.085938 38.171875 L 24.238281 38.011719 C 24.304688 37.945312 24.363281 37.875 24.425781 37.808594 C 24.558594 37.667969 24.6875 37.53125 24.816406 37.386719 "/>
</g>
</g>
</svg>
