<svg xmlns="http://www.w3.org/2000/svg" width="100" height="100" viewBox="0 0 75 75" version="1.2"><defs><clipPath id="a"><path d="M.066 0h74.407v74.7H.066zm0 0"/></clipPath><clipPath id="b"><path d="M39 74h2v.7h-2zm0 0"/></clipPath><clipPath id="c"><path d="M38 74h1v.7h-1zm0 0"/></clipPath><clipPath id="d"><path d="M12 1h62.473v73H12zm0 0"/></clipPath><clipPath id="e"><path d="M39 74h1v.7h-1zm0 0"/></clipPath><clipPath id="f"><path d="M42 74h2v.7h-2zm0 0"/></clipPath><clipPath id="g"><path d="M.066 0H47v74.7H.066zm0 0"/></clipPath><clipPath id="h"><path d="M17.977 24.227H75v35.168H17.977zm0 0"/></clipPath><clipPath id="i"><path d="M29.27 13.941h31.69v23.383H29.27zm0 0"/></clipPath></defs><g clip-path="url(#a)"><path d="M37.406 1.605c19.715 0 35.758 16.04 35.758 35.758 0 19.715-16.043 35.758-35.758 35.758-19.718 0-35.758-16.043-35.758-35.758 0-19.718 16.04-35.758 35.758-35.758zm0 73.106c20.594 0 37.348-16.754 37.348-37.348C74.754 16.77 58 .016 37.406.016 16.813.016.06 16.77.06 37.363c0 20.594 16.753 37.348 37.347 37.348"/></g><path d="M40.418.137l-.465-.035.465.035m2.09.226c-.168-.02-.332-.043-.496-.062.164.02.328.043.496.062M39.535.078l-.414-.023.414.023m3.781.406"/><g clip-path="url(#b)"><path d="M39.953 74.621l.504-.035-.504.035"/></g><g clip-path="url(#c)"><path d="M38.273 74.7l.348-.013-.348.012"/></g><g clip-path="url(#d)"><path d="M42.258 73.285c-16.426-3.144-30.164-18.34-30.164-35.941 0-17.543 12.64-33.047 29.918-35.938h5.504C63.215 5.828 74.754 20.27 74.754 37.363c0 17.047-11.484 31.465-27.121 35.922h-5.375"/></g><g clip-path="url(#e)"><path d="M39.125 74.668c.148-.008.293-.012.441-.023-.148.011-.293.015-.441.023"/></g><g clip-path="url(#f)"><path d="M42.91 74.305l.48-.075-.48.075"/></g><g clip-path="url(#g)"><path d="M38.637 73.098c-.41.015-.82.023-1.23.023-19.72 0-35.759-16.043-35.759-35.758 0-19.718 16.04-35.758 35.758-35.758.371 0 .746.004 1.117.016a37.452 37.452 0 00-17.488 11.473 37.359 37.359 0 00-8.941 24.25 37.34 37.34 0 008.98 24.293 37.44 37.44 0 0017.563 11.46zm-1.23 1.613c2.07 0 4.156-.176 6.206-.516l2.875-1.097-2.879-.473c-17.34-2.844-29.925-17.68-29.925-35.281 0-17.543 12.535-32.375 29.812-35.266l2.805-.469L43.492.512a37.844 37.844 0 00-6.086-.496C16.813.016.06 16.77.06 37.363c0 20.594 16.753 37.348 37.347 37.348"/></g><g clip-path="url(#h)"><path d="M18.04 46.777c1.483-1.23 2.62-2.117 3.378-2.632 1.21-.817 3.723-2.27 6.969-2.805 3.277-.543 6.476-.043 9.504 1.48a78.38 78.38 0 003.984 1.89.337.337 0 01.063-.038c.273-.117 6.726-2.852 9.015-3.59.465-.148 1.867-.594 3.34.328 1.703-.754 3.027-1.328 3.297-1.418 1.781-.59 2.988-.297 3.586.875.433-.172 1.629-.562 2.695-.12.688.28 1.184.85 1.477 1.683a.28.28 0 01-.133.343c-.059.032-5.266 2.84-8.719 4.797l2.86-.504c2.265-.5 3.855-.34 4.726.485.832.785.664 1.86.656 1.906a.286.286 0 01-.258.234c-2.64.2-20.445 5.102-20.625 5.153a.257.257 0 01-.132.008L33.48 52.715c-.039-.008-4.242-.942-6.566-.278-2.305.657-7.273 6.793-7.324 6.856a.287.287 0 01-.402.047.285.285 0 01-.043-.399c.207-.257 5.132-6.343 7.613-7.046 2.46-.704 6.672.23 6.844.27l10.168 2.12c1.343-.37 17.132-4.707 20.417-5.129 0-.281-.07-.793-.496-1.191-.714-.676-2.175-.793-4.218-.34h-.012l-5.23.922c.167.363.21.762.132 1.191-.07.39-.289.711-.656.953-.547.36-1.426.54-2.625.54-.441 0-.93-.024-1.46-.075a24.556 24.556 0 01-2.669-.406c-.324-.043-6.469-.832-8.21-1.008a.282.282 0 01-.259-.308.285.285 0 01.313-.254c1.793.175 8.18 1 8.242 1.008.008.003.02.003.027.007 1.32.293 5.04.875 6.329.024.234-.157.367-.344.41-.582.082-.438-.004-.809-.266-1.14-.894-1.15-3.473-1.368-3.762-1.388-.28-.023-.55-.039-.808-.054-2.809-.18-4.504-.29-11.332-3.723-2.918-1.469-5.996-1.95-9.153-1.43-3.14.52-5.574 1.926-6.742 2.72-.746.503-1.867 1.378-3.336 2.597a.293.293 0 01-.402-.035.294.294 0 01.035-.407zm33.089-5.156c-1.934.625-7.04 2.762-8.543 3.39.773.321 1.437.567 2.031.755a.313.313 0 01.082-.059c.317-.145 5.262-2.375 8.946-4.012-.98-.468-1.887-.273-2.516-.074zm6.644-1.094c-.648.215-8.082 3.551-12.343 5.473 1.304.336 2.304.402 3.543.48.02-.015.039-.03.066-.042l11.617-5.336c-.46-.88-1.406-1.067-2.883-.575zm-3.882 7.5h.007l.961-.172h.008c2.887-1.69 8.66-4.812 9.86-5.46-.243-.555-.598-.934-1.067-1.125-1.066-.442-2.39.171-2.406.18L50.12 46.565c.84.09 2.832.41 3.77 1.461zM62.277-.055c-2.386 0-4.718-.562-6.957-1.691a80.3 80.3 0 00-3.98-1.89.588.588 0 01-.067.038C51-3.48 44.551-.746 42.262-.012c-.25.082-.758.246-1.399.246a3.59 3.59 0 01-1.945-.57c-1.703.754-3.023 1.328-3.297 1.418-.594.2-1.125.297-1.59.297-.93 0-1.597-.39-1.996-1.172-.289.113-.91.324-1.61.324-.355 0-.726-.054-1.085-.203-.688-.281-1.184-.851-1.477-1.683a.28.28 0 01.133-.344c.059-.031 5.266-2.836 8.715-4.797l-2.856.508c-.855.187-1.617.281-2.277.281-1.086 0-1.906-.254-2.45-.766-.831-.785-.663-1.859-.655-1.906a.282.282 0 01.257-.234c2.641-.203 20.446-5.106 20.625-5.153a.306.306 0 01.133-.007l10.242 2.136c.043.008 4.243.938 6.567.278 2.308-.657 7.277-6.797 7.324-6.856a.286.286 0 01.402-.043.28.28 0 01.043.395c-.21.261-5.132 6.343-7.613 7.047-2.46.703-6.672-.23-6.844-.27l-10.168-2.117C48.098-12.836 32.31-8.5 29.02-8.078c.003.281.074.797.507 1.2.715.667 2.176.784 4.215.331h.012l5.226-.922a1.973 1.973 0 01-.132-1.191c.07-.39.293-.711.66-.953.75-.492 2.125-.649 4.082-.465a22.93 22.93 0 012.668.41c.32.04 6.469.832 8.215 1.004.156.016.27.152.254.309a.285.285 0 01-.313.253c-1.793-.175-8.176-1-8.242-1.007-.008 0-.016-.004-.027-.004-1.32-.297-5.036-.88-6.325-.028-.234.157-.37.348-.414.582-.078.438.008.809.266 1.141.894 1.152 3.473 1.367 3.766 1.39.28.02.55.036.808.051 2.805.18 4.504.29 11.332 3.727C58.496-.781 61.574-.3 64.73-.824c3.141-.52 5.57-1.926 6.743-2.715.722-.492 1.804-1.332 3.21-2.5a.29.29 0 01.403.039.28.28 0 01-.04.398c-1.421 1.18-2.515 2.028-3.257 2.532-1.207.816-3.719 2.27-6.965 2.804a15.62 15.62 0 01-2.547.211zM42.082-.547c1.934-.625 7.04-2.762 8.543-3.394a25.904 25.904 0 00-2.031-.75.372.372 0 01-.078.058c-.32.145-5.266 2.375-8.95 4.012.985.469 1.891.273 2.516.074zM35.442.547c.644-.215 8.081-3.55 12.34-5.473-1.302-.336-2.302-.402-3.54-.48-.02.015-.039.031-.066.043L32.559-.027c.46.875 1.402 1.066 2.882.574zm3.878-7.5h-.004l-.964.168c0 .004-.004.004-.004.004-2.887 1.691-8.66 4.812-9.86 5.46.242.555.598.93 1.067 1.126 1.066.441 2.39-.172 2.406-.184l11.133-5.113c-.84-.09-2.836-.41-3.774-1.461zm0 0" fill="#fbf8f8"/></g><g clip-path="url(#i)"><path d="M58.297 26.95c-.266-.266-.445-.497-.414-.528.004-.004.008-.004.015-.004.055-.004.278.168.528.406.129-.12.25-.226.344-.3.007-.004.011-.008.015-.012l.043-.032a.063.063 0 00.024-.015.119.119 0 00.027-.02l.023-.011a.068.068 0 01.02-.008c.012-.004.023-.008.027-.008h.004c.004 0 .008 0 .012.004s.004.012 0 .02c0 .003-.004.011-.004.015a.19.19 0 00-.012.027l-.015.024c-.008.008-.012.02-.02.031a.105.105 0 01-.027.031c-.008.012-.016.028-.028.04a.274.274 0 01-.03.038l-.036.043c-.012.012-.023.028-.04.043-.01.016-.026.032-.038.047a.789.789 0 00-.047.051c-.016.016-.027.031-.043.047-.02.016-.035.035-.055.05a.047.047 0 01-.02.02.104.104 0 01.02.024c.02.015.035.035.055.05a.51.51 0 00.043.047.6.6 0 00.047.051l.039.047c.016.016.027.031.039.043.012.016.023.031.035.043a.274.274 0 01.031.039l.028.039c.011.008.02.02.027.031.008.012.012.024.02.032.004.007.011.02.015.023a.19.19 0 00.012.027l.004.016c.004.008.004.016 0 .02v.003h-.016c-.004 0-.015 0-.027-.007a255.909 255.909 0 01-.043-.02.119.119 0 00-.027-.02c-.008-.003-.016-.011-.024-.015l-.043-.031c-.004-.004-.008-.008-.015-.012a3.825 3.825 0 01-.344-.3c-.25.237-.473.405-.528.405h-.015c-.031-.035.148-.265.414-.535zm-27.156 0c-.262-.266-.442-.497-.41-.528.003-.004.007-.004.011-.004.059-.004.278.168.528.406.128-.12.25-.226.347-.3l.012-.012c.016-.012.031-.02.043-.032a.06.06 0 00.023-.015c.012-.004.02-.012.032-.02l.023-.011c.008-.004.012-.008.02-.008a.072.072 0 01.027-.008c.008 0 .012 0 .012.004.003.004.003.012.003.02a.03.03 0 01-.007.015c-.004.008-.004.016-.012.027-.004.008-.008.016-.016.024a.36.36 0 01-.043.062l-.027.04a.274.274 0 00-.031.038l-.035.043a.205.205 0 00-.04.043.49.49 0 00-.038.047l-.051.051c-.012.016-.028.031-.043.047l-.051.05c-.008.009-.012.016-.02.02.008.008.012.016.02.024l.05.05c.016.02.032.032.044.047l.05.051a.414.414 0 00.04.047c.011.016.023.027.039.043a.31.31 0 00.035.043c.008.012.02.027.031.039.008.016.02.027.027.039.008.008.016.02.024.031a.36.36 0 01.02.032c.007.007.011.02.015.023.008.012.008.02.012.027a.03.03 0 01.008.016c0 .008 0 .016-.004.023h-.012c-.008 0-.02 0-.027-.007-.008 0-.012-.004-.02-.008l-.023-.012c-.012-.008-.02-.016-.032-.02-.008-.003-.015-.011-.023-.015-.012-.012-.027-.02-.043-.031l-.012-.012a3.893 3.893 0 01-.347-.3c-.25.237-.47.405-.528.405h-.012c-.03-.035.149-.265.41-.535zM44.43 14.89c-.465-.472-.785-.882-.727-.94a.03.03 0 01.02-.009c.105 0 .492.301.933.723.442-.422.832-.723.938-.723.008 0 .011.004.02.008.058.059-.262.469-.731.942.469.468.789.879.73.937-.008.004-.011.008-.02.008-.105 0-.495-.3-.937-.723-.441.422-.828.723-.933.723a.03.03 0 01-.02-.008c-.058-.058.262-.469.727-.937zm6.12 4.544c-.468-.473-.788-.88-.73-.938a.03.03 0 01.02-.008c.105 0 .492.301.937.723.442-.422.828-.723.934-.723a.03.03 0 01.02.008c.058.059-.262.465-.727.938.465.472.785.882.726.941a.03.03 0 01-.02.008c-.105 0-.491-.301-.933-.727-.445.426-.832.727-.937.727a.03.03 0 01-.02-.008c-.058-.059.262-.469.73-.941zm-11.597.25c-.465-.473-.785-.883-.726-.938.003-.008.011-.008.02-.008.105 0 .491.301.933.723a8.088 8.088 0 01.636-.555c.028-.02.055-.035.079-.054.011-.008.027-.016.039-.024a.199.199 0 01.05-.035c.016-.012.032-.016.043-.023.012-.004.024-.012.035-.016.02-.008.036-.016.047-.016h.004c.012 0 .016 0 .02.008.008.008.012.02.008.04l-.012.023c-.008.015-.012.03-.024.05-.003.012-.015.024-.023.04l-.039.058c-.012.016-.027.035-.04.055l-.054.066c-.015.024-.035.047-.054.07l-.063.075c-.02.027-.043.05-.066.078l-.07.082c-.028.027-.055.058-.083.086a1.556 1.556 0 00-.078.086l-.094.093-.035.036.035.035c.032.035.063.062.09.093.028.032.055.06.082.086l.082.09.07.078.067.079c.023.027.043.05.063.078.02.02.039.043.054.066.02.023.035.047.055.066.012.02.027.04.039.055l.039.063c.008.011.02.027.023.039.012.02.016.031.024.047.004.007.008.02.012.023.004.02 0 .035-.008.043-.004.004-.008.004-.02.004h-.004a.135.135 0 01-.047-.012c-.011-.004-.023-.012-.035-.015-.011-.008-.027-.016-.043-.028-.015-.008-.03-.02-.05-.031-.012-.008-.028-.016-.04-.027l-.078-.055a.07.07 0 00-.027-.02 7.438 7.438 0 01-.61-.535c-.44.422-.827.723-.933.723-.008 0-.016 0-.02-.004-.058-.059.262-.469.727-.941zm-.07 17.21a11.53 11.53 0 01-2.344-.242 11.367 11.367 0 01-6.797-4.3.18.18 0 01-.027-.145.2.2 0 01.09-.125 11.88 11.88 0 011.254-.61c.011-.003.02-.003.03-.007a11.184 11.184 0 013.063-.785 12.602 12.602 0 001.891 2.375 12.839 12.839 0 006.156 3.351c-1.07.324-2.18.489-3.316.489zm-4.496-6.671a11.85 11.85 0 00-3.469.84c-.004 0-.008.003-.012.007-.449.184-.89.395-1.32.64a.608.608 0 00-.195.895c1.77 2.372 4.312 3.899 7.058 4.47.797.167 1.614.25 2.434.25 1.613 0 3.234-.325 4.77-.997l.202-.098a12.299 12.299 0 01-7.5-3.48 12.201 12.201 0 01-1.968-2.527zm6.71-3.098a11.935 11.935 0 003.481 8.652 11.81 11.81 0 01-7.863-3.382c-1.985-1.954-3.266-4.598-3.434-7.536a.62.62 0 01.625-.648v.434a.18.18 0 00-.136.058.169.169 0 00-.051.133 11.06 11.06 0 003.304 7.254 11.357 11.357 0 006.493 3.168 12.298 12.298 0 01-2.86-7.938 11.458 11.458 0 00-6.742-2.675l-.008-.434c.012 0 .024.004.035.004a11.846 11.846 0 017.157 2.91zm5.434 8.09a12.304 12.304 0 002.938-7.91 11.46 11.46 0 016.715-2.614h.015c.082 0 .14.047.164.075a.215.215 0 01.063.164 11.081 11.081 0 01-3.375 7.18 11.36 11.36 0 01-6.52 3.105zM56.863 24.96a.662.662 0 00-.664-.7h-.035a11.845 11.845 0 00-7.137 2.844 11.942 11.942 0 01-3.562 8.622 11.814 11.814 0 007.894-3.309c1.993-1.926 3.297-4.543 3.504-7.457zm-1.789 11.09c-.234.082-.476.16-.719.234l-.074.02-.172.047a7.217 7.217 0 01-.242.062l-.02.004-.038.012c-.891.215-1.809.324-2.723.324a11.24 11.24 0 01-2.984-.399 12.814 12.814 0 005.953-3.3 12.72 12.72 0 002.074-2.68c.57.047 1.133.137 1.676.262a11.748 11.748 0 012.594.965.22.22 0 01.12.218 11.221 11.221 0 01-5.445 4.23zm5.531-4.832a11.55 11.55 0 00-1.66-.703 8.405 8.405 0 00-.34-.11 12.913 12.913 0 00-.675-.183h-.004c-.68-.16-1.36-.258-2.043-.301a12.105 12.105 0 01-2.14 2.828 12.318 12.318 0 01-7.286 3.46c-.023 0-.043.005-.066.009 1.515.652 3.113.965 4.695.965a12.045 12.045 0 003.14-.414c.083-.02.169-.047.25-.07a11.718 11.718 0 006.457-4.707.656.656 0 00-.328-.774zm-15.558 3.695c-2.945-3.137-3.824-7.668-2.223-11.668.082-.215.172-.422.262-.613a11.209 11.209 0 011.84-2.742.193.193 0 01.23.035 11.058 11.058 0 012.625 4.945c.028.113.051.223.07.336.02.074.032.152.047.227l.004.035c.07.394.118.808.141 1.226a10.988 10.988 0 01-2.996 8.219zm.504.094c.058-.063.113-.13.172-.196.086-.101.172-.207.257-.312.047-.059.094-.117.141-.18.094-.12.184-.242.274-.367a12.007 12.007 0 00.402-.61c.012-.019.023-.034.031-.05v.004a11.466 11.466 0 001.508-7.902c-.016-.09-.035-.184-.05-.274a11.47 11.47 0 00-2.8-5.484.622.622 0 00-.466-.203.611.611 0 00-.387.132 11.529 11.529 0 00-2.219 3.52 11.472 11.472 0 002.633 12.453l.004-.004s0 .004-.004.004h.004l.105-.11c.043-.042.086-.09.13-.136.089-.094.179-.188.265-.285" fill="#fbf8f8"/></g></svg>