<svg version="1.0" xmlns="http://www.w3.org/2000/svg" width="430.667" height="430.667" viewBox="0 0 323 323"><path d="M146.9 5.4c-.2.2-2.9.6-5.9 1-48.2 5.3-95 37.9-118 82.2-3.9 7.4-9.9 21.3-10.5 24.4-.2.8-1 4-1.9 7-.8 3-1.8 6.7-2.1 8.3-.3 1.5-.7 3.7-.9 5-1.5 7.5-1.8 11.7-2.1 24.7-.3 19.4 1.3 31.9 6.5 48.5 12.3 39.9 39.7 72.9 77 92.7 15.6 8.3 34.9 14.4 52.5 16.5 7.8 1 32.3.9 40-.1 15.3-2 32.6-7.2 47.4-14.3 41.9-20.1 72.3-57.9 84-104.3.7-2.5 1.5-5.6 1.8-7 1-4 1.4-52.7.4-55.2-.5-1.3-1.1-4.1-1.4-6.3-1.6-11.6-10.9-34.7-19.9-49.5-9.7-16-26.5-33.9-42.4-45.2-12.6-8.9-35.8-20.3-45.4-22.3-.8-.2-4-1-7-1.9-9.3-2.7-23.8-4.4-38.1-4.4-7.5-.1-13.8 0-14 .2zM163 12c.3 0-2.4 1.2-6 2.6-44.5 17.1-79.5 53.3-93.9 97.4-8.4 25.8-9.9 55.3-4.1 82.1 3.8 17.8 11.4 36.1 21.3 51.2 5.7 8.8 6.6 9.9 13.6 18.1 16.3 18.9 38.6 34.4 63.1 43.8l7.5 2.8-10.5-.4c-5.8-.3-12-.8-13.7-1.1-1.8-.3-4.7-.7-6.4-1-5.8-.8-21.6-5.5-29-8.5-22.7-9.4-44.1-25.3-59-43.8-10.5-13-15.4-21.4-23.9-40.7-3-6.8-7.5-24.5-8.7-34-1-7.6-1-32.6-.1-38.5.4-2.5 1-5.9 1.2-7.5 2.5-16.7 11.4-38.8 22.2-55.1 6.7-10.3 7.8-11.7 16.9-21.2 25.1-26.5 59.3-42.9 95.5-45.8 4.1-.3 7.6-.7 7.7-.8.2-.2 5.3.1 6.3.4z"/></svg>