<?xml version="1.0" standalone="no"?>
<!DOCTYPE svg PUBLIC "-//W3C//DTD SVG 20010904//EN"
 "http://www.w3.org/TR/2001/REC-SVG-20010904/DTD/svg10.dtd">
<svg version="1.0" xmlns="http://www.w3.org/2000/svg"
 width="323.000000pt" height="323.000000pt" viewBox="0 0 323.000000 323.000000"
 preserveAspectRatio="xMidYMid meet">
<metadata>
Created by potrace 1.14, written by Peter Selinger 2001-2017
</metadata>
<g transform="translate(0.000000,323.000000) scale(0.100000,-0.100000)"
fill="#000000" stroke="none">
<path d="M1469 3176 c-2 -2 -29 -6 -59 -10 -482 -53 -950 -379 -1180 -822 -39
-74 -99 -213 -105 -244 -2 -8 -10 -40 -19 -70 -8 -30 -18 -67 -21 -83 -3 -15
-7 -37 -9 -50 -15 -75 -18 -117 -21 -247 -3 -194 13 -319 65 -485 123 -399
397 -729 770 -927 156 -83 349 -144 525 -165 78 -10 323 -9 400 1 153 20 326
72 474 143 419 201 723 579 840 1043 7 25 15 56 18 70 10 40 14 527 4 552 -5
13 -11 41 -14 63 -16 116 -109 347 -199 495 -97 160 -265 339 -424 452 -126
89 -358 203 -454 223 -8 2 -40 10 -70 19 -93 27 -238 44 -381 44 -75 1 -138 0
-140 -2z m161 -66 c3 0 -24 -12 -60 -26 -445 -171 -795 -533 -939 -974 -84
-258 -99 -553 -41 -821 38 -178 114 -361 213 -512 57 -88 66 -99 136 -181 163
-189 386 -344 631 -438 l75 -28 -105 4 c-58 3 -120 8 -137 11 -18 3 -47 7 -64
10 -58 8 -216 55 -290 85 -227 94 -441 253 -590 438 -105 130 -154 214 -239
407 -30 68 -75 245 -87 340 -10 76 -10 326 -1 385 4 25 10 59 12 75 25 167
114 388 222 551 67 103 78 117 169 212 251 265 593 429 955 458 41 3 76 7 77
8 2 2 53 -1 63 -4z"/>
</g>
</svg>
